<?xml version="1.0" encoding="UTF-8" standalone="no"?>
<!DOCTYPE svg PUBLIC "-//W3C//DTD SVG 1.1//EN" "http://www.w3.org/Graphics/SVG/1.1/DTD/svg11.dtd">
<svg width="100%" height="100%" viewBox="0 0 664 163" version="1.1" xmlns="http://www.w3.org/2000/svg" xmlns:xlink="http://www.w3.org/1999/xlink" xml:space="preserve" xmlns:serif="http://www.serif.com/" style="fill-rule:evenodd;clip-rule:evenodd;stroke-linejoin:round;stroke-miterlimit:2;">
    <g transform="matrix(1,0,0,1,-152.28,-537.959)">
        <g>
            <g>
                <g>
                    <g transform="matrix(1,0,0,1,45.3909,227.399)">
                        <path d="M388.7,367.602L388.7,310.56L415.843,310.56L415.843,323.118L443.028,323.118L443.028,310.56L469.928,310.56L469.928,323.118L519.557,323.118L519.557,310.56L546.403,310.56L546.403,323.118L558.09,323.118L558.09,310.56L584.821,310.56L584.821,323.118L637.577,323.118L637.577,310.56L665.014,310.56L665.014,323.118L768.106,323.118L768.106,378.794L714.24,378.794L714.24,367.602L388.7,367.602Z" style="fill:url(#_Linear1);"/>
                    </g>
                    <g transform="matrix(1,0,0,1,45.3909,227.399)">
                        <rect x="440.574" y="333.559" width="4.035" height="23.201" style="fill-rule:nonzero;"/>
                    </g>
                    <g transform="matrix(1,0,0,1,45.3909,227.399)">
                        <path d="M444.609,341.527L444.609,369.671L415.154,369.671L415.154,365.636L432.403,365.636C432.504,365.636 432.84,365.384 433.412,364.879C433.983,364.375 434.673,363.736 435.48,362.963C436.287,362.189 437.077,361.408 437.85,360.617C438.624,359.827 439.271,359.146 439.792,358.575C440.313,358.003 440.574,357.667 440.574,357.566L440.574,341.527L444.609,341.527Z" style="fill-rule:nonzero;"/>
                    </g>
                    <g transform="matrix(1,0,0,1,45.3909,227.399)">
                        <path d="M387.112,339.813L387.112,310.56L418.483,310.56L418.483,320.849L444.609,320.849L444.609,340.72L440.574,340.72L440.574,332.953C440.574,332.852 440.322,332.516 439.817,331.945C439.313,331.373 438.674,330.692 437.901,329.902C437.127,329.112 436.346,328.33 435.555,327.557C434.765,326.783 434.076,326.144 433.488,325.64C432.899,325.136 432.538,324.884 432.403,324.884L414.448,324.884L414.448,314.595L391.146,314.595L391.146,339.813L387.112,339.813Z" style="fill-rule:nonzero;"/>
                    </g>
                    <g transform="matrix(1,0,0,1,45.3909,227.399)">
                        <path d="M387.112,341.527L391.146,341.527L391.146,365.636L416.566,365.636L416.566,369.671L387.112,369.671L387.112,341.527Z" style="fill-rule:nonzero;"/>
                    </g>
                    <g transform="matrix(1,0,0,1,45.3909,227.399)">
                        <rect x="387.112" y="333.559" width="4.035" height="23.201" style="fill-rule:nonzero;"/>
                    </g>
                    <g transform="matrix(1,0,0,1,45.3909,227.399)">
                        <path d="M413.843,351.413L413.843,338.905C413.843,338.703 413.859,338.585 413.893,338.552C413.927,338.518 414.044,338.501 414.246,338.501L417.474,338.501C417.676,338.501 417.793,338.518 417.827,338.552C417.861,338.585 417.878,338.703 417.878,338.905L417.878,351.413C417.878,351.615 417.861,351.732 417.827,351.766C417.793,351.8 417.676,351.816 417.474,351.816L414.246,351.816C414.044,351.816 413.927,351.8 413.893,351.766C413.859,351.732 413.843,351.615 413.843,351.413Z" style="fill-rule:nonzero;"/>
                    </g>
                    <g transform="matrix(1,0,0,1,45.3909,227.399)">
                        <path d="M471.945,344.554L471.945,369.671L456.209,369.671C455.974,369.166 455.856,368.494 455.856,367.653C455.856,366.813 455.974,366.14 456.209,365.636L467.91,365.636L467.91,344.554L471.945,344.554Z" style="fill-rule:nonzero;"/>
                    </g>
                    <g transform="matrix(1,0,0,1,45.3909,227.399)">
                        <path d="M440.574,344.554L444.609,344.554L444.609,365.636L456.31,365.636C456.579,366.14 456.713,366.813 456.713,367.653C456.713,368.494 456.579,369.166 456.31,369.671L440.574,369.671L440.574,344.554Z" style="fill-rule:nonzero;"/>
                    </g>
                    <g transform="matrix(1,0,0,1,45.3909,227.399)">
                        <rect x="440.574" y="333.559" width="4.035" height="23.201" style="fill-rule:nonzero;"/>
                    </g>
                    <g transform="matrix(1,0,0,1,45.3909,227.399)">
                        <rect x="467.91" y="333.559" width="4.035" height="23.201" style="fill-rule:nonzero;"/>
                    </g>
                    <g transform="matrix(1,0,0,1,45.3909,227.399)">
                        <path d="M471.945,335.677L467.91,335.677L467.91,314.595L456.209,314.595C455.974,314.09 455.856,313.418 455.856,312.577C455.856,311.737 455.974,311.064 456.209,310.56L471.945,310.56L471.945,335.677Z" style="fill-rule:nonzero;"/>
                    </g>
                    <g transform="matrix(1,0,0,1,45.3909,227.399)">
                        <path d="M440.574,335.677L440.574,310.56L456.31,310.56C456.579,311.064 456.713,311.737 456.713,312.577C456.713,313.418 456.579,314.09 456.31,314.595L444.609,314.595L444.609,335.677L440.574,335.677Z" style="fill-rule:nonzero;"/>
                    </g>
                    <g transform="matrix(1,0,0,1,45.3909,227.399)">
                        <path d="M471.945,338.703L467.91,338.703L467.91,324.581L456.31,324.581L456.31,320.748L471.945,320.748L471.945,338.703Z" style="fill-rule:nonzero;"/>
                    </g>
                    <g transform="matrix(1,0,0,1,45.3909,227.399)">
                        <path d="M440.574,338.703L440.574,320.748L456.31,320.748L456.31,324.581L444.609,324.581L444.609,338.703L440.574,338.703Z" style="fill-rule:nonzero;"/>
                    </g>
                    <g transform="matrix(1,0,0,1,45.3909,227.399)">
                        <path d="M521.574,369.671L467.91,369.671L467.91,343.646L471.945,343.646L471.945,365.636L495.347,365.636L495.347,351.413L517.539,351.413L517.539,335.475L521.574,335.475L521.574,369.671Z" style="fill-rule:nonzero;"/>
                    </g>
                    <g transform="matrix(1,0,0,1,45.3909,227.399)">
                        <path d="M467.91,345.966L467.91,320.849L495.65,320.849L495.65,335.677C495.65,335.677 495.373,335.13 494.818,334.038C494.263,332.945 493.633,331.692 492.926,330.28C492.22,328.868 491.59,327.615 491.035,326.523C490.48,325.43 490.203,324.884 490.203,324.884L471.945,324.884L471.945,345.966L467.91,345.966Z" style="fill-rule:nonzero;"/>
                    </g>
                    <g transform="matrix(1,0,0,1,45.3909,227.399)">
                        <path d="M521.574,341.124L517.539,341.124L517.539,324.884L501.299,324.884C501.299,324.884 501.013,325.43 500.441,326.523C499.87,327.615 499.214,328.868 498.474,330.28C497.735,331.692 497.079,332.945 496.507,334.038C495.936,335.13 495.65,335.677 495.65,335.677C495.65,335.677 495.574,335.13 495.423,334.038C495.272,332.945 495.104,331.692 494.919,330.28C494.734,328.868 494.566,327.615 494.414,326.523C494.263,325.43 494.187,324.884 494.187,324.884L494.187,320.849L521.574,320.849L521.574,341.124Z" style="fill-rule:nonzero;"/>
                    </g>
                    <g transform="matrix(1,0,0,1,45.3909,227.399)">
                        <rect x="517.539" y="328.616" width="4.035" height="23.201" style="fill-rule:nonzero;"/>
                    </g>
                    <g transform="matrix(1,0,0,1,45.3909,227.399)">
                        <path d="M517.539,341.527L521.574,341.527L521.574,357.566C521.574,357.667 521.835,358.003 522.356,358.575C522.877,359.146 523.524,359.827 524.298,360.617C525.071,361.408 525.861,362.189 526.668,362.963C527.475,363.736 528.164,364.375 528.736,364.879C529.308,365.384 529.644,365.636 529.745,365.636L539.529,365.636L539.529,369.671L517.539,369.671L517.539,341.527Z" style="fill-rule:nonzero;"/>
                    </g>
                    <g transform="matrix(1,0,0,1,45.3909,227.399)">
                        <path d="M560.107,341.527L560.107,369.671L538.117,369.671L538.117,365.636L556.072,365.636L556.072,341.527L560.107,341.527Z" style="fill-rule:nonzero;"/>
                    </g>
                    <g transform="matrix(1,0,0,1,45.3909,227.399)">
                        <path d="M543.665,342.637C543.665,342.503 543.674,342.41 543.69,342.36C543.707,342.309 543.741,342.276 543.791,342.259C543.842,342.242 543.934,342.234 544.069,342.234L559.603,342.234C559.805,342.234 559.922,342.25 559.956,342.284C559.99,342.318 560.006,342.435 560.006,342.637L560.006,345.865C560.006,346.067 559.99,346.184 559.956,346.218C559.922,346.252 559.805,346.268 559.603,346.268L544.069,346.268C543.934,346.268 543.842,346.26 543.791,346.243C543.741,346.226 543.707,346.193 543.69,346.142C543.674,346.092 543.665,345.999 543.665,345.865L543.665,342.637Z" style="fill-rule:nonzero;"/>
                    </g>
                    <g transform="matrix(1,0,0,1,45.3909,227.399)">
                        <path d="M517.539,340.62L517.539,310.56L548.91,310.56L548.91,320.849C549.011,320.849 549.028,320.849 548.961,320.849C548.894,320.849 549.179,320.849 549.818,320.849L559.704,320.849C559.906,320.849 560.023,320.865 560.057,320.899C560.09,320.933 560.107,321.084 560.107,321.353L560.107,341.729L556.072,341.729L556.072,324.884L544.876,324.884L544.876,314.595L521.574,314.595L521.574,340.62L517.539,340.62Z" style="fill-rule:nonzero;"/>
                    </g>
                    <g transform="matrix(1,0,0,1,45.3909,227.399)">
                        <path d="M613.569,341.527L613.569,369.671L584.115,369.671L584.115,365.636L609.535,365.636L609.535,341.527L613.569,341.527Z" style="fill-rule:nonzero;"/>
                    </g>
                    <g transform="matrix(1,0,0,1,45.3909,227.399)">
                        <path d="M556.072,341.527L560.107,341.527L560.107,365.636L585.527,365.636L585.527,369.671L556.072,369.671L556.072,341.527Z" style="fill-rule:nonzero;"/>
                    </g>
                    <g transform="matrix(1,0,0,1,45.3909,227.399)">
                        <path d="M556.072,339.813L556.072,310.56L587.444,310.56L587.444,320.849L613.569,320.849L613.569,340.72L609.535,340.72L609.535,332.953C609.535,332.852 609.282,332.516 608.778,331.945C608.274,331.373 607.635,330.692 606.861,329.902C606.088,329.112 605.306,328.33 604.516,327.557C603.726,326.783 603.037,326.144 602.448,325.64C601.86,325.136 601.498,324.884 601.364,324.884L583.409,324.884L583.409,314.595L560.107,314.595L560.107,339.813L556.072,339.813Z" style="fill-rule:nonzero;"/>
                    </g>
                    <g transform="matrix(1,0,0,1,45.3909,227.399)">
                        <rect x="556.072" y="333.559" width="4.035" height="23.201" style="fill-rule:nonzero;"/>
                    </g>
                    <g transform="matrix(1,0,0,1,45.3909,227.399)">
                        <rect x="609.535" y="333.559" width="4.035" height="23.201" style="fill-rule:nonzero;"/>
                    </g>
                    <g transform="matrix(1,0,0,1,45.3909,227.399)">
                        <path d="M586.662,366.342L582.98,366.342C582.93,366.342 582.888,366.325 582.854,366.292C582.82,366.258 582.803,366.216 582.803,366.165L582.803,344.352C582.803,344.217 582.812,344.125 582.829,344.074C582.846,344.024 582.879,343.99 582.93,343.974C582.98,343.957 583.072,343.948 583.207,343.948L586.435,343.948C586.569,343.948 586.662,343.957 586.712,343.974C586.763,343.99 586.796,344.024 586.813,344.074C586.83,344.125 586.838,344.217 586.838,344.352L586.838,366.165C586.838,366.216 586.822,366.258 586.788,366.292C586.754,366.325 586.712,366.342 586.662,366.342Z" style="fill-rule:nonzero;"/>
                    </g>
                    <g transform="matrix(1,0,0,1,45.3909,227.399)">
                        <rect x="609.535" y="333.559" width="4.035" height="23.201" style="fill-rule:nonzero;"/>
                    </g>
                    <g transform="matrix(1,0,0,1,45.3909,227.399)">
                        <rect x="662.997" y="333.559" width="4.035" height="23.201" style="fill-rule:nonzero;"/>
                    </g>
                    <g transform="matrix(1,0,0,1,45.3909,227.399)">
                        <path d="M609.535,341.527L613.569,341.527L613.569,357.566C613.569,357.667 613.83,358.003 614.351,358.575C614.872,359.146 615.52,359.827 616.293,360.617C617.066,361.408 617.857,362.189 618.664,362.963C619.47,363.736 620.16,364.375 620.731,364.879C621.303,365.384 621.639,365.636 621.74,365.636L638.989,365.636L638.989,369.671L609.535,369.671L609.535,341.527Z" style="fill-rule:nonzero;"/>
                    </g>
                    <g transform="matrix(1,0,0,1,45.3909,227.399)">
                        <path d="M667.032,339.813L662.997,339.813L662.997,314.595L639.695,314.595L639.695,324.884L621.74,324.884C621.606,324.884 621.244,325.136 620.656,325.64C620.067,326.144 619.378,326.783 618.588,327.557C617.798,328.33 617.016,329.112 616.243,329.902C615.469,330.692 614.83,331.373 614.326,331.945C613.822,332.516 613.569,332.852 613.569,332.953L613.569,340.72L609.535,340.72L609.535,320.849L635.66,320.849L635.66,310.56L667.032,310.56L667.032,339.813Z" style="fill-rule:nonzero;"/>
                    </g>
                    <g transform="matrix(1,0,0,1,45.3909,227.399)">
                        <path d="M667.032,341.527L667.032,369.671L637.577,369.671L637.577,365.636L662.997,365.636L662.997,341.527L667.032,341.527Z" style="fill-rule:nonzero;"/>
                    </g>
                    <g transform="matrix(1,0,0,1,45.3909,227.399)">
                        <path d="M636.266,351.413L636.266,338.905C636.266,338.703 636.283,338.585 636.316,338.552C636.35,338.518 636.467,338.501 636.669,338.501L639.897,338.501C640.099,338.501 640.217,338.518 640.25,338.552C640.284,338.585 640.301,338.703 640.301,338.905L640.301,351.413C640.301,351.615 640.284,351.732 640.25,351.766C640.217,351.8 640.099,351.816 639.897,351.816L636.669,351.816C636.467,351.816 636.35,351.8 636.316,351.766C636.283,351.732 636.266,351.615 636.266,351.413Z" style="fill-rule:nonzero;"/>
                    </g>
                    <g transform="matrix(1,0,0,1,45.3909,227.399)">
                        <path d="M662.997,341.527L667.032,341.527L667.032,357.566C667.032,357.667 667.292,358.003 667.813,358.575C668.335,359.146 668.982,359.827 669.755,360.617C670.529,361.408 671.319,362.189 672.126,362.963C672.933,363.736 673.622,364.375 674.194,364.879C674.765,365.384 675.101,365.636 675.202,365.636L690.434,365.636L690.434,369.671L662.997,369.671L662.997,341.527Z" style="fill-rule:nonzero;"/>
                    </g>
                    <g transform="matrix(1,0,0,1,45.3909,227.399)">
                        <path d="M662.997,345.966L662.997,320.849L690.434,320.849L690.434,324.884L667.032,324.884L667.032,345.966L662.997,345.966Z" style="fill-rule:nonzero;"/>
                    </g>
                    <g transform="matrix(1,0,0,1,45.3909,227.399)">
                        <path d="M716.661,348.992L712.626,348.992L712.626,332.953C712.626,332.852 712.365,332.516 711.844,331.945C711.323,331.373 710.676,330.692 709.902,329.902C709.129,329.112 708.339,328.33 707.532,327.557C706.725,326.783 706.036,326.144 705.464,325.64C704.892,325.136 704.556,324.884 704.455,324.884L689.224,324.884L689.224,320.849L716.661,320.849L716.661,348.992Z" style="fill-rule:nonzero;"/>
                    </g>
                    <g transform="matrix(1,0,0,1,45.3909,227.399)">
                        <path d="M716.661,344.554L716.661,369.671L689.224,369.671L689.224,365.636L712.626,365.636L712.626,344.554L716.661,344.554Z" style="fill-rule:nonzero;"/>
                    </g>
                    <g transform="matrix(1,0,0,1,45.3909,227.399)">
                        <rect x="712.626" y="333.559" width="4.035" height="23.201" style="fill-rule:nonzero;"/>
                    </g>
                    <g transform="matrix(1,0,0,1,45.3909,227.399)">
                        <path d="M683.676,353.834C683.474,353.834 683.356,353.817 683.323,353.783C683.289,353.75 683.272,353.632 683.272,353.43L683.272,350.202C683.272,350.001 683.289,349.883 683.323,349.849C683.356,349.816 683.474,349.799 683.676,349.799L696.184,349.799C696.385,349.799 696.503,349.816 696.537,349.849C696.57,349.883 696.587,350.001 696.587,350.202L696.587,353.43C696.587,353.632 696.57,353.75 696.537,353.783C696.503,353.817 696.385,353.834 696.184,353.834L683.676,353.834Z" style="fill-rule:nonzero;"/>
                    </g>
                    <g transform="matrix(1,0,0,1,45.3909,227.399)">
                        <path d="M665.115,337.997L667.032,337.997L667.032,339.409C667.032,339.409 667.713,339.308 669.074,339.107C670.436,338.905 672.117,338.661 674.118,338.375C676.119,338.089 678.119,337.804 680.12,337.518C682.12,337.232 683.802,336.988 685.163,336.786C686.525,336.585 687.206,336.484 687.206,336.484C687.206,336.484 687.215,336.551 687.231,336.686C687.248,336.82 687.282,337.03 687.332,337.316C687.383,337.602 687.441,337.963 687.509,338.4C687.576,338.838 687.635,339.207 687.685,339.51C687.736,339.813 687.769,340.04 687.786,340.191C687.803,340.342 687.811,340.418 687.811,340.418C687.811,340.418 687.114,340.519 685.718,340.72C684.323,340.922 682.591,341.174 680.523,341.477C678.455,341.78 676.388,342.082 674.32,342.385C672.252,342.687 670.52,342.94 669.125,343.141C667.729,343.343 667.032,343.444 667.032,343.444L667.032,345.361L665.115,345.361L665.115,337.997Z" style="fill-rule:nonzero;"/>
                    </g>
                    <g transform="matrix(1,0,0,1,45.3909,227.399)">
                        <path d="M770.123,351.816L770.123,379.96L740.668,379.96L740.668,375.925L757.917,375.925C758.018,375.925 758.355,375.673 758.926,375.168C759.498,374.664 760.187,374.025 760.994,373.252C761.801,372.478 762.591,371.697 763.365,370.906C764.138,370.116 764.785,369.435 765.306,368.864C765.828,368.292 766.088,367.956 766.088,367.855L766.088,351.816L770.123,351.816Z" style="fill-rule:nonzero;"/>
                    </g>
                    <g transform="matrix(1,0,0,1,45.3909,227.399)">
                        <rect x="766.088" y="338.703" width="4.035" height="23.201" style="fill-rule:nonzero;"/>
                    </g>
                    <g transform="matrix(1,0,0,1,45.3909,227.399)">
                        <path d="M770.123,348.992L766.088,348.992L766.088,324.884L740.668,324.884L740.668,320.849L770.123,320.849L770.123,348.992Z" style="fill-rule:nonzero;"/>
                    </g>
                    <g transform="matrix(1,0,0,1,45.3909,227.399)">
                        <path d="M712.626,348.992L712.626,320.849L742.081,320.849L742.081,324.884L716.661,324.884L716.661,348.992L712.626,348.992Z" style="fill-rule:nonzero;"/>
                    </g>
                    <g transform="matrix(1,0,0,1,45.3909,227.399)">
                        <path d="M724.529,358.575L743.291,358.575L743.291,362.61L715.854,362.61L715.854,344.352L716.661,344.352L716.661,351.514C716.661,351.615 716.913,351.917 717.417,352.422C717.922,352.926 718.544,353.523 719.283,354.212C720.023,354.901 720.78,355.582 721.553,356.255C722.326,356.927 722.991,357.482 723.545,357.919C724.1,358.356 724.428,358.575 724.529,358.575Z" style="fill-rule:nonzero;"/>
                    </g>
                    <g transform="matrix(1,0,0,1,45.3909,227.399)">
                        <path d="M712.626,351.816L716.661,351.816L716.661,375.925L742.081,375.925L742.081,379.96L712.626,379.96L712.626,351.816Z" style="fill-rule:nonzero;"/>
                    </g>
                    <g transform="matrix(1,0,0,1,45.3909,227.399)">
                        <rect x="712.626" y="338.804" width="4.035" height="23.201" style="fill-rule:nonzero;"/>
                    </g>
                    <g transform="matrix(1,0,0,1,45.3909,227.399)">
                        <path d="M739.534,324.682L743.215,324.682C743.266,324.682 743.308,324.699 743.341,324.732C743.375,324.766 743.392,324.808 743.392,324.858L743.392,346.672C743.392,346.806 743.383,346.899 743.367,346.949C743.35,347 743.316,347.033 743.266,347.05C743.215,347.067 743.123,347.075 742.988,347.075L739.761,347.075C739.626,347.075 739.534,347.067 739.483,347.05C739.433,347.033 739.399,347 739.382,346.949C739.365,346.899 739.357,346.806 739.357,346.672L739.357,324.858C739.357,324.808 739.374,324.766 739.407,324.732C739.441,324.699 739.483,324.682 739.534,324.682Z" style="fill-rule:nonzero;"/>
                    </g>
                </g>
                <g transform="matrix(1,0,0,1,2.01744,-1)">
                    <path d="M152.28,595.299L152.28,540.002L205.311,540.002L205.311,550.518L405.565,550.518L405.565,606.193L355.236,606.193L355.236,593.741L328.505,593.741L328.505,606.193L303.186,606.193L303.186,595.299L278.923,595.299L278.923,606.193L251.539,606.193L251.539,595.299L152.28,595.299Z" style="fill:url(#_Linear2);"/>
                    <g transform="matrix(1,0,0,1,-29.5541,-78.2603)">
                        <path d="M179.816,648.196L183.672,648.196L183.672,672.304L207.961,672.304L207.961,676.339L179.816,676.339L179.816,648.196Z" style="fill-rule:nonzero;"/>
                    </g>
                    <g transform="matrix(1,0,0,1,-29.5541,-78.2603)">
                        <rect x="179.816" y="636.192" width="3.855" height="21.183" style="fill-rule:nonzero;"/>
                    </g>
                    <g transform="matrix(1,0,0,1,-29.5541,-78.2603)">
                        <path d="M234.756,648.196L234.756,676.339L206.611,676.339L206.611,672.304L230.9,672.304L230.9,648.196L234.756,648.196Z" style="fill-rule:nonzero;"/>
                    </g>
                    <g transform="matrix(1,0,0,1,-29.5541,-78.2603)">
                        <path d="M179.816,645.371L179.816,617.228L207.961,617.228L207.961,621.263L183.672,621.263L183.672,645.371L179.816,645.371Z" style="fill-rule:nonzero;"/>
                    </g>
                    <g transform="matrix(1,0,0,1,-29.5541,-78.2603)">
                        <rect x="230.9" y="636.192" width="3.855" height="21.183" style="fill-rule:nonzero;"/>
                    </g>
                    <g transform="matrix(1,0,0,1,-29.5541,-78.2603)">
                        <path d="M234.756,645.371L230.9,645.371L230.9,621.263L206.611,621.263L206.611,617.228L234.756,617.228L234.756,645.371Z" style="fill-rule:nonzero;"/>
                    </g>
                    <g transform="matrix(1,0,0,1,-29.5541,-78.2603)">
                        <path d="M205.744,651.222L208.828,651.222C208.957,651.222 209.045,651.23 209.093,651.247C209.142,651.264 209.174,651.298 209.19,651.348C209.206,651.398 209.214,651.491 209.214,651.625L209.214,672.203C209.214,672.405 209.198,672.523 209.166,672.556C209.133,672.59 209.021,672.607 208.828,672.607L205.744,672.607C205.615,672.607 205.527,672.598 205.479,672.582C205.431,672.565 205.399,672.531 205.383,672.481C205.366,672.43 205.358,672.338 205.358,672.203L205.358,651.625C205.358,651.491 205.366,651.398 205.383,651.348C205.399,651.298 205.431,651.264 205.479,651.247C205.527,651.23 205.615,651.222 205.744,651.222Z" style="fill-rule:nonzero;"/>
                    </g>
                    <g transform="matrix(1,0,0,1,-29.5541,-78.2603)">
                        <path d="M208.925,642.345L205.84,642.345C205.712,642.345 205.623,642.337 205.575,642.32C205.527,642.303 205.495,642.27 205.479,642.219C205.463,642.169 205.455,642.076 205.455,641.942L205.455,621.364C205.455,621.162 205.471,621.044 205.503,621.011C205.535,620.977 205.648,620.96 205.84,620.96L208.925,620.96C209.053,620.96 209.142,620.969 209.19,620.986C209.238,621.002 209.27,621.036 209.286,621.086C209.302,621.137 209.31,621.229 209.31,621.364L209.31,641.942C209.31,642.076 209.302,642.169 209.286,642.219C209.27,642.27 209.238,642.303 209.19,642.32C209.142,642.337 209.053,642.345 208.925,642.345Z" style="fill-rule:nonzero;"/>
                    </g>
                    <g transform="matrix(1,0,0,1,-29.5541,-78.2603)">
                        <path d="M230.9,648.196L234.756,648.196L234.756,664.234C234.756,664.335 235.005,664.672 235.503,665.243C236.001,665.815 236.619,666.496 237.358,667.286C238.097,668.076 238.852,668.858 239.623,669.631C240.394,670.404 241.053,671.043 241.599,671.548C242.145,672.052 242.467,672.304 242.563,672.304L257.117,672.304L257.117,676.339L230.9,676.339L230.9,648.196Z" style="fill-rule:nonzero;"/>
                    </g>
                    <g transform="matrix(1,0,0,1,-29.5541,-78.2603)">
                        <path d="M230.9,652.634L230.9,627.517L257.117,627.517L257.117,631.552L234.756,631.552L234.756,652.634L230.9,652.634Z" style="fill-rule:nonzero;"/>
                    </g>
                    <g transform="matrix(1,0,0,1,-29.5541,-78.2603)">
                        <path d="M282.177,655.66L278.322,655.66L278.322,639.622C278.322,639.521 278.073,639.185 277.575,638.613C277.077,638.041 276.458,637.36 275.719,636.57C274.98,635.78 274.225,634.998 273.454,634.225C272.683,633.452 272.025,632.813 271.478,632.308C270.932,631.804 270.611,631.552 270.515,631.552L255.961,631.552L255.961,627.517L282.177,627.517L282.177,655.66Z" style="fill-rule:nonzero;"/>
                    </g>
                    <g transform="matrix(1,0,0,1,-29.5541,-78.2603)">
                        <path d="M282.177,651.222L282.177,676.339L255.961,676.339L255.961,672.304L278.322,672.304L278.322,651.222L282.177,651.222Z" style="fill-rule:nonzero;"/>
                    </g>
                    <g transform="matrix(1,0,0,1,-29.5541,-78.2603)">
                        <rect x="278.322" y="640.227" width="3.855" height="23.201" style="fill-rule:nonzero;"/>
                    </g>
                    <g transform="matrix(1,0,0,1,-29.5541,-78.2603)">
                        <path d="M250.659,660.502C250.467,660.502 250.354,660.485 250.322,660.452C250.29,660.418 250.274,660.3 250.274,660.099L250.274,656.871C250.274,656.669 250.29,656.551 250.322,656.518C250.354,656.484 250.467,656.467 250.659,656.467L262.611,656.467C262.804,656.467 262.916,656.484 262.948,656.518C262.981,656.551 262.997,656.669 262.997,656.871L262.997,660.099C262.997,660.3 262.981,660.418 262.948,660.452C262.916,660.485 262.804,660.502 262.611,660.502L250.659,660.502Z" style="fill-rule:nonzero;"/>
                    </g>
                    <g transform="matrix(1,0,0,1,-29.5541,-78.2603)">
                        <path d="M232.925,644.665L234.756,644.665L234.756,646.077C234.756,646.077 235.406,645.977 236.708,645.775C238.009,645.573 239.615,645.329 241.527,645.044C243.438,644.758 245.35,644.472 247.262,644.186C249.173,643.9 250.78,643.657 252.081,643.455C253.382,643.253 254.033,643.152 254.033,643.152C254.033,643.152 254.041,643.219 254.057,643.354C254.073,643.488 254.105,643.699 254.153,643.984C254.201,644.27 254.258,644.632 254.322,645.069C254.386,645.506 254.442,645.876 254.491,646.178C254.539,646.481 254.571,646.708 254.587,646.859C254.603,647.011 254.611,647.086 254.611,647.086C254.611,647.086 253.944,647.187 252.611,647.389C251.278,647.591 249.623,647.843 247.647,648.145C245.671,648.448 243.696,648.751 241.72,649.053C239.744,649.356 238.089,649.608 236.756,649.81C235.422,650.011 234.756,650.112 234.756,650.112L234.756,652.029L232.925,652.029L232.925,644.665Z" style="fill-rule:nonzero;"/>
                    </g>
                    <g transform="matrix(1,0,0,1,-29.5541,-78.2603)">
                        <rect x="329.406" y="640.328" width="3.855" height="23.201" style="fill-rule:nonzero;"/>
                    </g>
                    <g transform="matrix(1,0,0,1,-29.5541,-78.2603)">
                        <path d="M333.261,655.66L329.406,655.66L329.406,639.622C329.406,639.521 329.157,639.185 328.659,638.613C328.161,638.041 327.542,637.36 326.803,636.57C326.065,635.78 325.309,634.998 324.538,634.225C323.767,633.452 323.109,632.813 322.563,632.308C322.016,631.804 321.695,631.552 321.599,631.552L305.117,631.552L305.117,627.517L333.261,627.517L333.261,655.66Z" style="fill-rule:nonzero;"/>
                    </g>
                    <g transform="matrix(1,0,0,1,-29.5541,-78.2603)">
                        <path d="M278.322,657.375L282.177,657.375L282.177,682.593L304.442,682.593L304.442,672.304L321.599,672.304C321.727,672.304 322.073,672.052 322.635,671.548C323.197,671.043 323.856,670.404 324.611,669.631C325.366,668.858 326.113,668.076 326.852,667.286C327.591,666.496 328.201,665.815 328.683,665.243C329.165,664.672 329.406,664.335 329.406,664.234L329.406,656.467L333.261,656.467L333.261,676.339L308.298,676.339L308.298,686.628L278.322,686.628L278.322,657.375Z" style="fill-rule:nonzero;"/>
                    </g>
                    <g transform="matrix(1,0,0,1,-29.5541,-78.2603)">
                        <path d="M278.322,655.66L278.322,627.517L306.466,627.517L306.466,631.552L282.177,631.552L282.177,655.66L278.322,655.66Z" style="fill-rule:nonzero;"/>
                    </g>
                    <g transform="matrix(1,0,0,1,-29.5541,-78.2603)">
                        <path d="M303.864,658.182L303.864,645.674C303.864,645.472 303.88,645.355 303.912,645.321C303.944,645.287 304.057,645.27 304.249,645.27L307.334,645.27C307.526,645.27 307.639,645.287 307.671,645.321C307.703,645.355 307.719,645.472 307.719,645.674L307.719,658.182C307.719,658.384 307.703,658.502 307.671,658.535C307.639,658.569 307.526,658.586 307.334,658.586L304.249,658.586C304.057,658.586 303.944,658.569 303.912,658.535C303.88,658.502 303.864,658.384 303.864,658.182Z" style="fill-rule:nonzero;"/>
                    </g>
                    <g transform="matrix(1,0,0,1,-29.5541,-78.2603)">
                        <rect x="278.322" y="640.328" width="3.855" height="23.201" style="fill-rule:nonzero;"/>
                    </g>
                    <g transform="matrix(1,0,0,1,-29.5541,-78.2603)">
                        <rect x="380.49" y="640.328" width="3.855" height="23.201" style="fill-rule:nonzero;"/>
                    </g>
                    <g transform="matrix(1,0,0,1,-29.5541,-78.2603)">
                        <path d="M384.345,655.66L380.49,655.66L380.49,639.622C380.49,639.521 380.241,639.185 379.743,638.613C379.245,638.041 378.626,637.36 377.887,636.57C377.149,635.78 376.394,634.998 375.622,634.225C374.851,633.452 374.193,632.813 373.647,632.308C373.1,631.804 372.779,631.552 372.683,631.552L356.201,631.552L356.201,627.517L384.345,627.517L384.345,655.66Z" style="fill-rule:nonzero;"/>
                    </g>
                    <g transform="matrix(1,0,0,1,-29.5541,-78.2603)">
                        <path d="M329.406,657.375L333.261,657.375L333.261,682.593L355.526,682.593L355.526,672.304L372.683,672.304C372.811,672.304 373.157,672.052 373.719,671.548C374.281,671.043 374.94,670.404 375.695,669.631C376.45,668.858 377.197,668.076 377.936,667.286C378.675,666.496 379.285,665.815 379.767,665.243C380.249,664.672 380.49,664.335 380.49,664.234L380.49,656.467L384.345,656.467L384.345,676.339L359.382,676.339L359.382,686.628L329.406,686.628L329.406,657.375Z" style="fill-rule:nonzero;"/>
                    </g>
                    <g transform="matrix(1,0,0,1,-29.5541,-78.2603)">
                        <path d="M329.406,655.66L329.406,627.517L357.55,627.517L357.55,631.552L333.261,631.552L333.261,655.66L329.406,655.66Z" style="fill-rule:nonzero;"/>
                    </g>
                    <g transform="matrix(1,0,0,1,-29.5541,-78.2603)">
                        <path d="M354.948,658.182L354.948,645.674C354.948,645.472 354.964,645.355 354.996,645.321C355.028,645.287 355.141,645.27 355.333,645.27L358.418,645.27C358.61,645.27 358.723,645.287 358.755,645.321C358.787,645.355 358.803,645.472 358.803,645.674L358.803,658.182C358.803,658.384 358.787,658.502 358.755,658.535C358.723,658.569 358.61,658.586 358.418,658.586L355.333,658.586C355.141,658.586 355.028,658.569 354.996,658.535C354.964,658.502 354.948,658.384 354.948,658.182Z" style="fill-rule:nonzero;"/>
                    </g>
                    <g transform="matrix(1,0,0,1,-29.5541,-78.2603)">
                        <rect x="329.406" y="640.328" width="3.855" height="23.201" style="fill-rule:nonzero;"/>
                    </g>
                    <g transform="matrix(1,0,0,1,-29.5541,-78.2603)">
                        <path d="M435.429,658.485L435.429,686.628L407.285,686.628L407.285,682.593L423.767,682.593C423.863,682.593 424.184,682.341 424.731,681.837C425.277,681.332 425.935,680.693 426.706,679.92C427.478,679.147 428.233,678.365 428.972,677.575C429.71,676.785 430.329,676.104 430.827,675.532C431.325,674.961 431.574,674.624 431.574,674.523L431.574,658.485L435.429,658.485Z" style="fill-rule:nonzero;"/>
                    </g>
                    <g transform="matrix(1,0,0,1,-29.5541,-78.2603)">
                        <rect x="431.574" y="645.371" width="3.855" height="23.201" style="fill-rule:nonzero;"/>
                    </g>
                    <g transform="matrix(1,0,0,1,-29.5541,-78.2603)">
                        <path d="M435.429,655.66L431.574,655.66L431.574,631.552L407.285,631.552L407.285,627.517L435.429,627.517L435.429,655.66Z" style="fill-rule:nonzero;"/>
                    </g>
                    <g transform="matrix(1,0,0,1,-29.5541,-78.2603)">
                        <path d="M380.49,655.66L380.49,627.517L408.634,627.517L408.634,631.552L384.345,631.552L384.345,655.66L380.49,655.66Z" style="fill-rule:nonzero;"/>
                    </g>
                    <g transform="matrix(1,0,0,1,-29.5541,-78.2603)">
                        <path d="M391.863,665.243L409.791,665.243L409.791,669.278L383.574,669.278L383.574,651.02L384.345,651.02L384.345,658.182C384.345,658.283 384.586,658.586 385.068,659.09C385.55,659.594 386.144,660.191 386.851,660.88C387.558,661.57 388.281,662.251 389.02,662.923C389.759,663.596 390.393,664.15 390.924,664.588C391.454,665.025 391.767,665.243 391.863,665.243Z" style="fill-rule:nonzero;"/>
                    </g>
                    <g transform="matrix(1,0,0,1,-29.5541,-78.2603)">
                        <path d="M380.49,658.485L384.345,658.485L384.345,682.593L408.634,682.593L408.634,686.628L380.49,686.628L380.49,658.485Z" style="fill-rule:nonzero;"/>
                    </g>
                    <g transform="matrix(1,0,0,1,-29.5541,-78.2603)">
                        <rect x="380.49" y="645.472" width="3.855" height="23.201" style="fill-rule:nonzero;"/>
                    </g>
                    <g transform="matrix(1,0,0,1,-29.5541,-78.2603)">
                        <path d="M406.201,631.35L409.719,631.35C409.767,631.35 409.807,631.367 409.839,631.401C409.871,631.434 409.887,631.476 409.887,631.527L409.887,653.34C409.887,653.475 409.879,653.567 409.863,653.618C409.847,653.668 409.815,653.702 409.767,653.719C409.719,653.735 409.63,653.744 409.502,653.744L406.417,653.744C406.289,653.744 406.201,653.735 406.152,653.719C406.104,653.702 406.072,653.668 406.056,653.618C406.04,653.567 406.032,653.475 406.032,653.34L406.032,631.527C406.032,631.476 406.048,631.434 406.08,631.401C406.112,631.367 406.152,631.35 406.201,631.35Z" style="fill-rule:nonzero;"/>
                    </g>
                </g>
            </g>
            <g transform="matrix(1,0,0,1,35.9261,-9.21733)">
                <g transform="matrix(1,0,0,1.01449,-24.5795,426.712)">
                    <path d="M374.856,212.071L402.293,212.071L402.293,222.412L642.167,222.412L642.167,212.071L669.503,212.071L669.503,267.636L642.167,267.636L642.167,279.088L535.242,279.088L535.242,265.664L273.58,265.664L273.58,212.071L325.227,212.071L325.227,223.058L374.856,223.058L374.856,212.071Z" style="fill:url(#_Linear3);"/>
                </g>
                <g transform="matrix(1,0,0,1,-24.5795,430.756)">
                    <path d="M327.244,240.655L327.244,268.799L299.807,268.799L299.807,264.764L315.038,264.764C315.139,264.764 315.476,264.512 316.047,264.007C316.619,263.503 317.308,262.864 318.115,262.091C318.922,261.317 319.712,260.536 320.486,259.745C321.259,258.955 321.906,258.274 322.427,257.703C322.948,257.131 323.209,256.795 323.209,256.694L323.209,240.655L327.244,240.655Z" style="fill-rule:nonzero;"/>
                </g>
                <g transform="matrix(1,0,0,1,-24.5795,430.756)">
                    <path d="M273.58,237.831L273.58,209.688L301.017,209.688L301.017,213.722L285.786,213.722C285.685,213.722 285.348,213.975 284.777,214.479C284.205,214.983 283.516,215.622 282.709,216.396C281.902,217.169 281.112,217.951 280.338,218.741C279.565,219.531 278.918,220.212 278.397,220.784C277.875,221.355 277.615,221.691 277.615,221.792L277.615,237.831L273.58,237.831Z" style="fill-rule:nonzero;"/>
                </g>
                <g transform="matrix(1,0,0,1,-24.5795,430.756)">
                    <path d="M273.58,243.681L277.615,243.681L277.615,264.764L301.017,264.764L301.017,268.799L273.58,268.799L273.58,243.681Z" style="fill-rule:nonzero;"/>
                </g>
                <g transform="matrix(1,0,0,1,-24.5795,430.756)">
                    <path d="M327.244,234.805L323.209,234.805L323.209,213.722L299.807,213.722L299.807,209.688L327.244,209.688L327.244,234.805Z" style="fill-rule:nonzero;"/>
                </g>
                <g transform="matrix(1,0,0,1,-24.5795,430.756)">
                    <rect x="323.209" y="219.674" width="4.035" height="37.323" style="fill-rule:nonzero;"/>
                </g>
                <g transform="matrix(1,0,0,1,-24.5795,430.756)">
                    <rect x="273.58" y="221.59" width="4.035" height="37.323" style="fill-rule:nonzero;"/>
                </g>
                <g transform="matrix(1,0,0,1,-24.5795,430.756)">
                    <path d="M275.698,245.699L275.698,238.335L277.615,238.335L277.615,240.252C277.615,240.252 278.313,240.353 279.708,240.554C281.103,240.756 282.835,241.008 284.903,241.311C286.971,241.614 289.039,241.916 291.107,242.219C293.174,242.521 294.906,242.774 296.301,242.975C297.697,243.177 298.395,243.278 298.395,243.278C298.395,243.278 298.386,243.354 298.369,243.505C298.352,243.656 298.319,243.883 298.268,244.186C298.218,244.488 298.159,244.858 298.092,245.295C298.025,245.733 297.966,246.094 297.915,246.38C297.865,246.666 297.831,246.876 297.815,247.01C297.798,247.145 297.789,247.212 297.789,247.212C297.789,247.212 297.108,247.111 295.747,246.909C294.385,246.708 292.704,246.464 290.703,246.178C288.702,245.892 286.702,245.606 284.701,245.321C282.7,245.035 281.019,244.791 279.658,244.589C278.296,244.388 277.615,244.287 277.615,244.287L277.615,245.699L275.698,245.699Z" style="fill-rule:nonzero;"/>
                </g>
                <g transform="matrix(1,0,0,1,-24.5795,430.756)">
                    <path d="M325.126,232.081L325.126,239.445L323.209,239.445L323.209,237.528C323.209,237.528 322.511,237.427 321.116,237.226C319.721,237.024 317.989,236.772 315.921,236.469C313.853,236.167 311.785,235.864 309.717,235.561C307.65,235.259 305.918,235.006 304.523,234.805C303.127,234.603 302.429,234.502 302.429,234.502C302.429,234.502 302.438,234.426 302.455,234.275C302.471,234.124 302.505,233.897 302.555,233.594C302.606,233.292 302.665,232.922 302.732,232.485C302.799,232.048 302.858,231.686 302.909,231.4C302.959,231.114 302.993,230.904 303.009,230.77C303.026,230.635 303.035,230.568 303.035,230.568C303.035,230.568 303.716,230.669 305.077,230.871C306.439,231.072 308.12,231.316 310.121,231.602C312.122,231.888 314.122,232.174 316.123,232.459C318.123,232.745 319.805,232.989 321.166,233.191C322.528,233.393 323.209,233.493 323.209,233.493L323.209,232.081L325.126,232.081Z" style="fill-rule:nonzero;"/>
                </g>
                <g transform="matrix(1,0,0,1,-24.5795,430.756)">
                    <path d="M323.209,240.655L327.244,240.655L327.244,256.694C327.244,256.795 327.505,257.131 328.026,257.703C328.547,258.274 329.194,258.955 329.967,259.745C330.741,260.536 331.531,261.317 332.338,262.091C333.145,262.864 333.834,263.503 334.406,264.007C334.977,264.512 335.314,264.764 335.415,264.764L350.646,264.764L350.646,268.799L323.209,268.799L323.209,240.655Z" style="fill-rule:nonzero;"/>
                </g>
                <g transform="matrix(1,0,0,1,-24.5795,430.756)">
                    <path d="M323.209,248.12L323.209,219.977L350.646,219.977L350.646,224.011L335.415,224.011C335.314,224.011 334.977,224.264 334.406,224.768C333.834,225.272 333.145,225.911 332.338,226.685C331.531,227.458 330.741,228.24 329.967,229.03C329.194,229.82 328.547,230.501 328.026,231.072C327.505,231.644 327.244,231.98 327.244,232.081L327.244,248.12L323.209,248.12Z" style="fill-rule:nonzero;"/>
                </g>
                <g transform="matrix(1,0,0,1,-24.5795,430.756)">
                    <rect x="323.209" y="232.686" width="4.035" height="23.201" style="fill-rule:nonzero;"/>
                </g>
                <g transform="matrix(1,0,0,1,-24.5795,430.756)">
                    <path d="M353.37,242.673C353.37,242.538 353.378,242.446 353.395,242.395C353.412,242.345 353.445,242.311 353.496,242.294C353.546,242.278 353.639,242.269 353.773,242.269L374.351,242.269C374.486,242.269 374.578,242.278 374.629,242.294C374.679,242.311 374.713,242.345 374.73,242.395C374.746,242.446 374.755,242.538 374.755,242.673L374.755,245.901C374.755,246.102 374.738,246.22 374.704,246.254C374.671,246.287 374.553,246.304 374.351,246.304L353.773,246.304C353.639,246.304 353.546,246.296 353.496,246.279C353.445,246.262 353.412,246.229 353.395,246.178C353.378,246.128 353.37,246.035 353.37,245.901L353.37,242.673Z" style="fill-rule:nonzero;"/>
                </g>
                <g transform="matrix(1,0,0,1,-24.5795,430.756)">
                    <path d="M376.873,243.681L376.873,268.799L349.436,268.799L349.436,264.764L372.838,264.764L372.838,243.681L376.873,243.681Z" style="fill-rule:nonzero;"/>
                </g>
                <g transform="matrix(1,0,0,1,-24.5795,430.756)">
                    <path d="M376.873,245.094L372.838,245.094L372.838,224.011L349.436,224.011L349.436,219.977L376.873,219.977L376.873,245.094Z" style="fill-rule:nonzero;"/>
                </g>
                <g transform="matrix(1,0,0,1,-24.5795,430.756)">
                    <path d="M430.335,240.655L430.335,268.799L400.881,268.799L400.881,264.764L426.3,264.764L426.3,240.655L430.335,240.655Z" style="fill-rule:nonzero;"/>
                </g>
                <g transform="matrix(1,0,0,1,-24.5795,430.756)">
                    <path d="M372.838,240.655L376.873,240.655L376.873,264.764L402.293,264.764L402.293,268.799L372.838,268.799L372.838,240.655Z" style="fill-rule:nonzero;"/>
                </g>
                <g transform="matrix(1,0,0,1,-24.5795,430.756)">
                    <path d="M372.838,238.94L372.838,209.688L404.209,209.688L404.209,219.977L430.335,219.977L430.335,239.848L426.3,239.848L426.3,232.081C426.3,231.98 426.048,231.644 425.544,231.072C425.039,230.501 424.401,229.82 423.627,229.03C422.854,228.24 422.072,227.458 421.282,226.685C420.492,225.911 419.803,225.272 419.214,224.768C418.626,224.264 418.264,224.011 418.13,224.011L400.174,224.011L400.174,213.722L376.873,213.722L376.873,238.94L372.838,238.94Z" style="fill-rule:nonzero;"/>
                </g>
                <g transform="matrix(1,0,0,1,-24.5795,430.756)">
                    <rect x="372.838" y="232.686" width="4.035" height="23.201" style="fill-rule:nonzero;"/>
                </g>
                <g transform="matrix(1,0,0,1,-24.5795,430.756)">
                    <rect x="426.3" y="232.686" width="4.035" height="23.201" style="fill-rule:nonzero;"/>
                </g>
                <g transform="matrix(1,0,0,1,-24.5795,430.756)">
                    <path d="M403.428,265.47L399.746,265.47C399.695,265.47 399.653,265.453 399.62,265.419C399.586,265.386 399.569,265.344 399.569,265.293L399.569,243.48C399.569,243.345 399.578,243.253 399.594,243.202C399.611,243.152 399.645,243.118 399.695,243.101C399.746,243.085 399.838,243.076 399.973,243.076L403.201,243.076C403.335,243.076 403.428,243.085 403.478,243.101C403.528,243.118 403.562,243.152 403.579,243.202C403.596,243.253 403.604,243.345 403.604,243.48L403.604,265.293C403.604,265.344 403.587,265.386 403.554,265.419C403.52,265.453 403.478,265.47 403.428,265.47Z" style="fill-rule:nonzero;"/>
                </g>
                <g transform="matrix(1,0,0,1,-24.5795,430.756)">
                    <rect x="479.763" y="232.686" width="4.035" height="23.201" style="fill-rule:nonzero;"/>
                </g>
                <g transform="matrix(1,0,0,1,-24.5795,430.756)">
                    <rect x="426.3" y="232.686" width="4.035" height="23.201" style="fill-rule:nonzero;"/>
                </g>
                <g transform="matrix(1,0,0,1,-24.5795,430.756)">
                    <path d="M483.797,248.12L479.763,248.12L479.763,232.081C479.763,231.98 479.502,231.644 478.981,231.072C478.46,230.501 477.812,229.82 477.039,229.03C476.266,228.24 475.476,227.458 474.669,226.685C473.862,225.911 473.172,225.272 472.601,224.768C472.029,224.264 471.693,224.011 471.592,224.011L454.343,224.011L454.343,219.977L483.797,219.977L483.797,248.12Z" style="fill-rule:nonzero;"/>
                </g>
                <g transform="matrix(1,0,0,1,-24.5795,430.756)">
                    <path d="M483.797,240.655L483.797,268.799L454.343,268.799L454.343,264.764L479.763,264.764L479.763,240.655L483.797,240.655Z" style="fill-rule:nonzero;"/>
                </g>
                <g transform="matrix(1,0,0,1,-24.5795,430.756)">
                    <path d="M426.3,240.655L430.335,240.655L430.335,264.764L455.755,264.764L455.755,268.799L426.3,268.799L426.3,240.655Z" style="fill-rule:nonzero;"/>
                </g>
                <g transform="matrix(1,0,0,1,-24.5795,430.756)">
                    <path d="M426.3,248.12L426.3,219.977L455.755,219.977L455.755,224.011L430.335,224.011L430.335,248.12L426.3,248.12Z" style="fill-rule:nonzero;"/>
                </g>
                <g transform="matrix(1,0,0,1,-24.5795,430.756)">
                    <path d="M456.89,265.47L453.208,265.47C453.158,265.47 453.116,265.453 453.082,265.419C453.048,265.386 453.031,265.344 453.031,265.293L453.031,243.48C453.031,243.345 453.04,243.253 453.057,243.202C453.074,243.152 453.107,243.118 453.158,243.101C453.208,243.085 453.3,243.076 453.435,243.076L456.663,243.076C456.797,243.076 456.89,243.085 456.94,243.101C456.991,243.118 457.024,243.152 457.041,243.202C457.058,243.253 457.066,243.345 457.066,243.48L457.066,265.293C457.066,265.344 457.05,265.386 457.016,265.419C456.982,265.453 456.94,265.47 456.89,265.47Z" style="fill-rule:nonzero;"/>
                </g>
                <g transform="matrix(1,0,0,1,-24.5795,430.756)">
                    <rect x="479.763" y="232.787" width="4.035" height="23.201" style="fill-rule:nonzero;"/>
                </g>
                <g transform="matrix(1,0,0,1,-24.5795,430.756)">
                    <rect x="533.225" y="232.787" width="4.035" height="23.201" style="fill-rule:nonzero;"/>
                </g>
                <g transform="matrix(1,0,0,1,-24.5795,430.756)">
                    <path d="M479.763,240.655L483.797,240.655L483.797,256.694C483.797,256.795 484.058,257.131 484.579,257.703C485.1,258.274 485.748,258.955 486.521,259.745C487.294,260.536 488.085,261.317 488.892,262.091C489.699,262.864 490.388,263.503 490.959,264.007C491.531,264.512 491.867,264.764 491.968,264.764L509.217,264.764L509.217,268.799L479.763,268.799L479.763,240.655Z" style="fill-rule:nonzero;"/>
                </g>
                <g transform="matrix(1,0,0,1,-24.5795,430.756)">
                    <path d="M479.763,248.12L479.763,219.977L509.217,219.977L509.217,224.011L483.797,224.011L483.797,248.12L479.763,248.12Z" style="fill-rule:nonzero;"/>
                </g>
                <g transform="matrix(1,0,0,1,-24.5795,430.756)">
                    <path d="M537.26,248.12L533.225,248.12L533.225,224.011L507.805,224.011L507.805,219.977L537.26,219.977L537.26,248.12Z" style="fill-rule:nonzero;"/>
                </g>
                <g transform="matrix(1,0,0,1,-24.5795,430.756)">
                    <path d="M537.26,240.655L537.26,268.799L507.805,268.799L507.805,264.764L533.225,264.764L533.225,240.655L537.26,240.655Z" style="fill-rule:nonzero;"/>
                </g>
                <g transform="matrix(1,0,0,1,-24.5795,430.756)">
                    <path d="M506.67,223.81L510.352,223.81C510.403,223.81 510.445,223.826 510.478,223.86C510.512,223.894 510.529,223.936 510.529,223.986L510.529,245.8C510.529,245.934 510.52,246.027 510.503,246.077C510.487,246.128 510.453,246.161 510.403,246.178C510.352,246.195 510.26,246.203 510.125,246.203L506.897,246.203C506.763,246.203 506.67,246.195 506.62,246.178C506.569,246.161 506.536,246.128 506.519,246.077C506.502,246.027 506.494,245.934 506.494,245.8L506.494,223.986C506.494,223.936 506.511,223.894 506.544,223.86C506.578,223.826 506.62,223.81 506.67,223.81Z" style="fill-rule:nonzero;"/>
                </g>
                <g transform="matrix(1,0,0,1,-24.5795,430.756)">
                    <path d="M590.722,248.12L586.687,248.12L586.687,232.081C586.687,231.98 586.426,231.644 585.905,231.072C585.384,230.501 584.737,229.82 583.964,229.03C583.19,228.24 582.4,227.458 581.593,226.685C580.786,225.911 580.097,225.272 579.525,224.768C578.954,224.264 578.617,224.011 578.516,224.011L561.267,224.011L561.267,219.977L590.722,219.977L590.722,248.12Z" style="fill-rule:nonzero;"/>
                </g>
                <g transform="matrix(1,0,0,1,-24.5795,430.756)">
                    <path d="M533.225,248.12L533.225,219.977L562.679,219.977L562.679,224.011L545.43,224.011C545.329,224.011 544.993,224.264 544.422,224.768C543.85,225.272 543.161,225.911 542.354,226.685C541.547,227.458 540.757,228.24 539.983,229.03C539.21,229.82 538.563,230.501 538.041,231.072C537.52,231.644 537.26,231.98 537.26,232.081L537.26,248.12L533.225,248.12Z" style="fill-rule:nonzero;"/>
                </g>
                <g transform="matrix(1,0,0,1,-24.5795,430.756)">
                    <path d="M560.057,247.414L560.057,234.906C560.057,234.704 560.074,234.586 560.107,234.553C560.141,234.519 560.259,234.502 560.46,234.502L563.688,234.502C563.89,234.502 564.008,234.519 564.041,234.553C564.075,234.586 564.092,234.704 564.092,234.906L564.092,247.414C564.092,247.615 564.075,247.733 564.041,247.767C564.008,247.8 563.89,247.817 563.688,247.817L560.46,247.817C560.259,247.817 560.141,247.8 560.107,247.767C560.074,247.733 560.057,247.615 560.057,247.414Z" style="fill-rule:nonzero;"/>
                </g>
                <g transform="matrix(1,0,0,1,-24.5795,430.756)">
                    <path d="M590.722,250.944L590.722,279.088L561.267,279.088L561.267,275.053L578.516,275.053C578.617,275.053 578.954,274.801 579.525,274.296C580.097,273.792 580.786,273.153 581.593,272.38C582.4,271.606 583.19,270.824 583.964,270.034C584.737,269.244 585.384,268.563 585.905,267.992C586.426,267.42 586.687,267.084 586.687,266.983L586.687,250.944L590.722,250.944Z" style="fill-rule:nonzero;"/>
                </g>
                <g transform="matrix(1,0,0,1,-24.5795,430.756)">
                    <rect x="586.687" y="237.831" width="4.035" height="23.201" style="fill-rule:nonzero;"/>
                </g>
                <g transform="matrix(1,0,0,1,-24.5795,430.756)">
                    <path d="M545.128,258.207L563.89,258.207L563.89,262.242L536.453,262.242L536.453,243.984L537.26,243.984L537.26,251.146C537.26,251.247 537.512,251.55 538.016,252.054C538.521,252.558 539.143,253.155 539.882,253.844C540.622,254.534 541.379,255.215 542.152,255.887C542.925,256.559 543.589,257.114 544.144,257.551C544.699,257.989 545.027,258.207 545.128,258.207Z" style="fill-rule:nonzero;"/>
                </g>
                <g transform="matrix(1,0,0,1,-24.5795,430.756)">
                    <path d="M533.225,250.944L537.26,250.944L537.26,275.053L562.679,275.053L562.679,279.088L533.225,279.088L533.225,250.944Z" style="fill-rule:nonzero;"/>
                </g>
                <g transform="matrix(1,0,0,1,-24.5795,430.756)">
                    <rect x="533.225" y="237.932" width="4.035" height="23.201" style="fill-rule:nonzero;"/>
                </g>
                <g transform="matrix(1,0,0,1,-24.5795,430.756)">
                    <path d="M644.184,248.12L640.149,248.12L640.149,232.081C640.149,231.98 639.889,231.644 639.368,231.072C638.846,230.501 638.199,229.82 637.426,229.03C636.652,228.24 635.862,227.458 635.055,226.685C634.248,225.911 633.559,225.272 632.987,224.768C632.416,224.264 632.08,224.011 631.979,224.011L614.73,224.011L614.73,219.977L644.184,219.977L644.184,248.12Z" style="fill-rule:nonzero;"/>
                </g>
                <g transform="matrix(1,0,0,1,-24.5795,430.756)">
                    <path d="M586.687,248.12L586.687,219.977L616.142,219.977L616.142,224.011L598.893,224.011C598.792,224.011 598.455,224.264 597.884,224.768C597.312,225.272 596.623,225.911 595.816,226.685C595.009,227.458 594.219,228.24 593.445,229.03C592.672,229.82 592.025,230.501 591.504,231.072C590.983,231.644 590.722,231.98 590.722,232.081L590.722,248.12L586.687,248.12Z" style="fill-rule:nonzero;"/>
                </g>
                <g transform="matrix(1,0,0,1,-24.5795,430.756)">
                    <path d="M613.519,247.414L613.519,234.906C613.519,234.704 613.536,234.586 613.569,234.553C613.603,234.519 613.721,234.502 613.923,234.502L617.15,234.502C617.352,234.502 617.47,234.519 617.503,234.553C617.537,234.586 617.554,234.704 617.554,234.906L617.554,247.414C617.554,247.615 617.537,247.733 617.503,247.767C617.47,247.8 617.352,247.817 617.15,247.817L613.923,247.817C613.721,247.817 613.603,247.8 613.569,247.767C613.536,247.733 613.519,247.615 613.519,247.414Z" style="fill-rule:nonzero;"/>
                </g>
                <g transform="matrix(1,0,0,1,-24.5795,430.756)">
                    <path d="M644.184,250.944L644.184,279.088L614.73,279.088L614.73,275.053L631.979,275.053C632.08,275.053 632.416,274.801 632.987,274.296C633.559,273.792 634.248,273.153 635.055,272.38C635.862,271.606 636.652,270.824 637.426,270.034C638.199,269.244 638.846,268.563 639.368,267.992C639.889,267.42 640.149,267.084 640.149,266.983L640.149,250.944L644.184,250.944Z" style="fill-rule:nonzero;"/>
                </g>
                <g transform="matrix(1,0,0,1,-24.5795,430.756)">
                    <rect x="640.149" y="237.831" width="4.035" height="23.201" style="fill-rule:nonzero;"/>
                </g>
                <g transform="matrix(1,0,0,1,-24.5795,430.756)">
                    <path d="M598.59,258.207L617.352,258.207L617.352,262.242L589.915,262.242L589.915,243.984L590.722,243.984L590.722,251.146C590.722,251.247 590.974,251.55 591.478,252.054C591.983,252.558 592.605,253.155 593.345,253.844C594.084,254.534 594.841,255.215 595.614,255.887C596.388,256.559 597.052,257.114 597.606,257.551C598.161,257.989 598.489,258.207 598.59,258.207Z" style="fill-rule:nonzero;"/>
                </g>
                <g transform="matrix(1,0,0,1,-24.5795,430.756)">
                    <path d="M586.687,250.944L590.722,250.944L590.722,275.053L616.142,275.053L616.142,279.088L586.687,279.088L586.687,250.944Z" style="fill-rule:nonzero;"/>
                </g>
                <g transform="matrix(1,0,0,1,-24.5795,430.756)">
                    <rect x="586.687" y="237.932" width="4.035" height="23.201" style="fill-rule:nonzero;"/>
                </g>
                <g transform="matrix(1,0,0,1,-24.5795,430.756)">
                    <path d="M671.521,243.681L671.521,268.799L655.784,268.799C655.549,268.294 655.431,267.622 655.431,266.781C655.431,265.941 655.549,265.268 655.784,264.764L667.486,264.764L667.486,243.681L671.521,243.681Z" style="fill-rule:nonzero;"/>
                </g>
                <g transform="matrix(1,0,0,1,-24.5795,430.756)">
                    <path d="M640.149,243.681L644.184,243.681L644.184,264.764L655.885,264.764C656.154,265.268 656.289,265.941 656.289,266.781C656.289,267.622 656.154,268.294 655.885,268.799L640.149,268.799L640.149,243.681Z" style="fill-rule:nonzero;"/>
                </g>
                <g transform="matrix(1,0,0,1,-24.5795,430.756)">
                    <rect x="640.149" y="232.686" width="4.035" height="23.201" style="fill-rule:nonzero;"/>
                </g>
                <g transform="matrix(1,0,0,1,-24.5795,430.756)">
                    <rect x="667.486" y="232.686" width="4.035" height="23.201" style="fill-rule:nonzero;"/>
                </g>
                <g transform="matrix(1,0,0,1,-24.5795,430.756)">
                    <path d="M671.521,234.805L667.486,234.805L667.486,213.722L655.784,213.722C655.549,213.218 655.431,212.546 655.431,211.705C655.431,210.864 655.549,210.192 655.784,209.688L671.521,209.688L671.521,234.805Z" style="fill-rule:nonzero;"/>
                </g>
                <g transform="matrix(1,0,0,1,-24.5795,430.756)">
                    <path d="M640.149,234.805L640.149,209.688L655.885,209.688C656.154,210.192 656.289,210.864 656.289,211.705C656.289,212.546 656.154,213.218 655.885,213.722L644.184,213.722L644.184,234.805L640.149,234.805Z" style="fill-rule:nonzero;"/>
                </g>
                <g transform="matrix(1,0,0,1,-24.5795,430.756)">
                    <path d="M671.521,237.831L667.486,237.831L667.486,223.709L655.885,223.709L655.885,219.876L671.521,219.876L671.521,237.831Z" style="fill-rule:nonzero;"/>
                </g>
                <g transform="matrix(1,0,0,1,-24.5795,430.756)">
                    <path d="M640.149,237.831L640.149,219.876L655.885,219.876L655.885,223.709L644.184,223.709L644.184,237.831L640.149,237.831Z" style="fill-rule:nonzero;"/>
                </g>
            </g>
        </g>
    </g>
    <defs>
        <linearGradient id="_Linear1" x1="0" y1="0" x2="1" y2="0" gradientUnits="userSpaceOnUse" gradientTransform="matrix(2.86442e-15,46.7794,-38.9475,2.38485e-15,556.072,320.849)"><stop offset="0" style="stop-color:rgb(255,255,85);stop-opacity:1"/><stop offset="1" style="stop-color:rgb(250,0,179);stop-opacity:1"/></linearGradient>
        <linearGradient id="_Linear2" x1="0" y1="0" x2="1" y2="0" gradientUnits="userSpaceOnUse" gradientTransform="matrix(3.6963e-15,60.3651,-34.5874,2.11787e-15,264.537,545.828)"><stop offset="0" style="stop-color:rgb(255,255,85);stop-opacity:1"/><stop offset="1" style="stop-color:rgb(250,0,179);stop-opacity:1"/></linearGradient>
        <linearGradient id="_Linear3" x1="0" y1="0" x2="1" y2="0" gradientUnits="userSpaceOnUse" gradientTransform="matrix(0.353052,44.1475,-44.1475,0.343038,471.592,224.798)"><stop offset="0" style="stop-color:rgb(255,255,85);stop-opacity:1"/><stop offset="1" style="stop-color:rgb(250,0,179);stop-opacity:1"/></linearGradient>
    </defs>
</svg>
