<?xml version="1.0" encoding="UTF-8" standalone="no"?>
<!DOCTYPE svg PUBLIC "-//W3C//DTD SVG 1.1//EN" "http://www.w3.org/Graphics/SVG/1.1/DTD/svg11.dtd">
<svg width="100%" height="100%" viewBox="0 0 546 261" version="1.1" xmlns="http://www.w3.org/2000/svg" xmlns:xlink="http://www.w3.org/1999/xlink" xml:space="preserve" xmlns:serif="http://www.serif.com/" style="fill-rule:evenodd;clip-rule:evenodd;stroke-linejoin:round;stroke-miterlimit:2;">
    <g transform="matrix(1,0,0,1,-224.607,-209.688)">
        <g>
            <rect x="542.656" y="412.432" width="198.012" height="57.284" style="fill:url(#_Linear1);"/>
            <g transform="matrix(1,0,0,1,0,1)">
                <path d="M303.186,411.432L330.522,411.432L330.522,422.335L356.547,422.335L356.547,411.432L383.985,411.432L383.985,422.436L410.01,422.436L410.01,411.432L464.783,411.432L464.783,422.436L514.311,422.436L514.311,468.716L253.355,468.716L253.355,422.335L303.186,422.335L303.186,411.432Z" style="fill:url(#_Linear2);"/>
            </g>
            <path d="M305.203,470.543L251.539,470.543L251.539,444.518L255.574,444.518L255.574,466.508L278.977,466.508L278.977,452.285L301.169,452.285L301.169,436.347L305.203,436.347L305.203,470.543Z" style="fill-rule:nonzero;"/>
            <path d="M251.539,446.838L251.539,421.721L279.279,421.721L279.279,436.549C279.279,436.549 279.002,436.003 278.447,434.91C277.892,433.817 277.262,432.565 276.556,431.152C275.85,429.74 275.219,428.488 274.664,427.395C274.11,426.302 273.832,425.756 273.832,425.756L255.574,425.756L255.574,446.838L251.539,446.838Z" style="fill-rule:nonzero;"/>
            <path d="M305.203,441.996L301.169,441.996L301.169,425.756L284.928,425.756C284.928,425.756 284.642,426.302 284.071,427.395C283.499,428.488 282.843,429.74 282.104,431.152C281.364,432.565 280.708,433.817 280.137,434.91C279.565,436.003 279.279,436.549 279.279,436.549C279.279,436.549 279.204,436.003 279.052,434.91C278.901,433.817 278.733,432.565 278.548,431.152C278.363,429.74 278.195,428.488 278.044,427.395C277.892,426.302 277.817,425.756 277.817,425.756L277.817,421.721L305.203,421.721L305.203,441.996Z" style="fill-rule:nonzero;"/>
            <path d="M332.54,445.426L332.54,470.543L316.804,470.543C316.568,470.039 316.451,469.366 316.451,468.525C316.451,467.685 316.568,467.012 316.804,466.508L328.505,466.508L328.505,445.426L332.54,445.426Z" style="fill-rule:nonzero;"/>
            <path d="M301.169,445.426L305.203,445.426L305.203,466.508L316.905,466.508C317.174,467.012 317.308,467.685 317.308,468.525C317.308,469.366 317.174,470.039 316.905,470.543L301.169,470.543L301.169,445.426Z" style="fill-rule:nonzero;"/>
            <rect x="301.169" y="434.431" width="4.035" height="23.201" style="fill-rule:nonzero;"/>
            <rect x="328.505" y="434.431" width="4.035" height="23.201" style="fill-rule:nonzero;"/>
            <path d="M332.54,436.549L328.505,436.549L328.505,415.467L316.804,415.467C316.568,414.962 316.451,414.29 316.451,413.449C316.451,412.609 316.568,411.936 316.804,411.432L332.54,411.432L332.54,436.549Z" style="fill-rule:nonzero;"/>
            <path d="M301.169,436.549L301.169,411.432L316.905,411.432C317.174,411.936 317.308,412.609 317.308,413.449C317.308,414.29 317.174,414.962 316.905,415.467L305.203,415.467L305.203,436.549L301.169,436.549Z" style="fill-rule:nonzero;"/>
            <path d="M332.54,439.575L328.505,439.575L328.505,425.453L316.905,425.453L316.905,421.62L332.54,421.62L332.54,439.575Z" style="fill-rule:nonzero;"/>
            <path d="M301.169,439.575L301.169,421.62L316.905,421.62L316.905,425.453L305.203,425.453L305.203,439.575L301.169,439.575Z" style="fill-rule:nonzero;"/>
            <rect x="328.505" y="434.431" width="4.035" height="23.201" style="fill-rule:nonzero;"/>
            <rect x="381.967" y="434.431" width="4.035" height="23.201" style="fill-rule:nonzero;"/>
            <path d="M328.505,442.4L332.54,442.4L332.54,458.438C332.54,458.539 332.8,458.875 333.321,459.447C333.843,460.019 334.49,460.699 335.263,461.49C336.037,462.28 336.827,463.062 337.634,463.835C338.441,464.608 339.13,465.247 339.702,465.751C340.273,466.256 340.61,466.508 340.71,466.508L357.96,466.508L357.96,470.543L328.505,470.543L328.505,442.4Z" style="fill-rule:nonzero;"/>
            <path d="M386.002,440.685L381.967,440.685L381.967,415.467L358.666,415.467L358.666,425.756L340.71,425.756C340.576,425.756 340.214,426.008 339.626,426.512C339.038,427.017 338.348,427.655 337.558,428.429C336.768,429.202 335.986,429.984 335.213,430.774C334.439,431.564 333.801,432.245 333.296,432.817C332.792,433.388 332.54,433.725 332.54,433.825L332.54,441.593L328.505,441.593L328.505,421.721L354.631,421.721L354.631,411.432L386.002,411.432L386.002,440.685Z" style="fill-rule:nonzero;"/>
            <path d="M386.002,442.4L386.002,470.543L356.547,470.543L356.547,466.508L381.967,466.508L381.967,442.4L386.002,442.4Z" style="fill-rule:nonzero;"/>
            <path d="M355.236,452.285L355.236,439.777C355.236,439.575 355.253,439.457 355.286,439.424C355.32,439.39 355.438,439.373 355.639,439.373L358.867,439.373C359.069,439.373 359.187,439.39 359.22,439.424C359.254,439.457 359.271,439.575 359.271,439.777L359.271,452.285C359.271,452.487 359.254,452.604 359.22,452.638C359.187,452.672 359.069,452.689 358.867,452.689L355.639,452.689C355.438,452.689 355.32,452.672 355.286,452.638C355.253,452.604 355.236,452.487 355.236,452.285Z" style="fill-rule:nonzero;"/>
            <rect x="381.967" y="434.431" width="4.035" height="23.201" style="fill-rule:nonzero;"/>
            <rect x="435.429" y="434.431" width="4.035" height="23.201" style="fill-rule:nonzero;"/>
            <path d="M381.967,442.4L386.002,442.4L386.002,458.438C386.002,458.539 386.263,458.875 386.784,459.447C387.305,460.019 387.952,460.699 388.726,461.49C389.499,462.28 390.289,463.062 391.096,463.835C391.903,464.608 392.592,465.247 393.164,465.751C393.735,466.256 394.072,466.508 394.173,466.508L411.422,466.508L411.422,470.543L381.967,470.543L381.967,442.4Z" style="fill-rule:nonzero;"/>
            <path d="M439.464,440.685L435.429,440.685L435.429,415.467L412.128,415.467L412.128,425.756L394.173,425.756C394.038,425.756 393.677,426.008 393.088,426.512C392.5,427.017 391.811,427.655 391.02,428.429C390.23,429.202 389.448,429.984 388.675,430.774C387.902,431.564 387.263,432.245 386.759,432.817C386.254,433.388 386.002,433.725 386.002,433.825L386.002,441.593L381.967,441.593L381.967,421.721L408.093,421.721L408.093,411.432L439.464,411.432L439.464,440.685Z" style="fill-rule:nonzero;"/>
            <path d="M439.464,442.4L439.464,470.543L410.01,470.543L410.01,466.508L435.429,466.508L435.429,442.4L439.464,442.4Z" style="fill-rule:nonzero;"/>
            <path d="M408.698,452.285L408.698,439.777C408.698,439.575 408.715,439.457 408.749,439.424C408.782,439.39 408.9,439.373 409.102,439.373L412.33,439.373C412.531,439.373 412.649,439.39 412.683,439.424C412.716,439.457 412.733,439.575 412.733,439.777L412.733,452.285C412.733,452.487 412.716,452.604 412.683,452.638C412.649,452.672 412.531,452.689 412.33,452.689L409.102,452.689C408.9,452.689 408.782,452.672 408.749,452.638C408.715,452.604 408.698,452.487 408.698,452.285Z" style="fill-rule:nonzero;"/>
            <rect x="462.766" y="434.33" width="4.035" height="23.201" style="fill-rule:nonzero;"/>
            <path d="M435.429,437.457L435.429,411.432L466.801,411.432L466.801,437.457L462.766,437.457L462.766,415.467L439.464,415.467L439.464,437.457L435.429,437.457Z" style="fill-rule:nonzero;"/>
            <rect x="435.429" y="425.957" width="4.035" height="37.323" style="fill-rule:nonzero;"/>
            <path d="M435.429,443.408L439.464,443.408L439.464,458.438C439.464,458.539 439.725,458.875 440.246,459.447C440.767,460.019 441.414,460.699 442.188,461.49C442.961,462.28 443.751,463.062 444.558,463.835C445.365,464.608 446.055,465.247 446.626,465.751C447.198,466.256 447.534,466.508 447.635,466.508L462.766,466.508L462.766,443.408L466.801,443.408L466.801,470.543L435.429,470.543L435.429,443.408Z" style="fill-rule:nonzero;"/>
            <path d="M462.766,449.864L462.766,421.721L490.203,421.721L490.203,425.756L474.971,425.756C474.87,425.756 474.534,426.008 473.962,426.512C473.391,427.017 472.702,427.655 471.895,428.429C471.088,429.202 470.297,429.984 469.524,430.774C468.751,431.564 468.103,432.245 467.582,432.817C467.061,433.388 466.801,433.725 466.801,433.825L466.801,449.864L462.766,449.864Z" style="fill-rule:nonzero;"/>
            <rect x="462.766" y="434.532" width="4.035" height="23.201" style="fill-rule:nonzero;"/>
            <path d="M462.766,442.4L466.801,442.4L466.801,458.438C466.801,458.539 467.061,458.875 467.582,459.447C468.103,460.019 468.751,460.699 469.524,461.49C470.297,462.28 471.088,463.062 471.895,463.835C472.702,464.608 473.391,465.247 473.962,465.751C474.534,466.256 474.87,466.508 474.971,466.508L490.203,466.508L490.203,470.543L462.766,470.543L462.766,442.4Z" style="fill-rule:nonzero;"/>
            <path d="M516.43,449.864L512.395,449.864L512.395,433.825C512.395,433.725 512.134,433.388 511.613,432.817C511.092,432.245 510.445,431.564 509.671,430.774C508.898,429.984 508.108,429.202 507.301,428.429C506.494,427.655 505.804,427.017 505.233,426.512C504.661,426.008 504.325,425.756 504.224,425.756L488.992,425.756L488.992,421.721L516.43,421.721L516.43,449.864Z" style="fill-rule:nonzero;"/>
            <path d="M516.43,445.426L516.43,470.543L488.992,470.543L488.992,466.508L512.395,466.508L512.395,445.426L516.43,445.426Z" style="fill-rule:nonzero;"/>
            <path d="M496.053,438.163C496.255,438.163 496.373,438.18 496.407,438.213C496.44,438.247 496.457,438.365 496.457,438.566L496.457,441.794C496.457,441.996 496.44,442.114 496.407,442.147C496.373,442.181 496.255,442.198 496.053,442.198L483.545,442.198C483.344,442.198 483.226,442.181 483.192,442.147C483.159,442.114 483.142,441.996 483.142,441.794L483.142,438.566C483.142,438.365 483.159,438.247 483.192,438.213C483.226,438.18 483.344,438.163 483.545,438.163L496.053,438.163Z" style="fill-rule:nonzero;"/>
            <path d="M514.311,454.101L512.395,454.101L512.395,452.689C512.395,452.689 511.714,452.789 510.352,452.991C508.99,453.193 507.309,453.437 505.308,453.722C503.308,454.008 501.307,454.294 499.307,454.58C497.306,454.866 495.625,455.109 494.263,455.311C492.901,455.513 492.22,455.614 492.22,455.614C492.22,455.614 492.212,455.547 492.195,455.412C492.178,455.278 492.145,455.067 492.094,454.782C492.044,454.496 491.985,454.134 491.918,453.697C491.85,453.26 491.792,452.89 491.741,452.588C491.691,452.285 491.657,452.058 491.64,451.907C491.623,451.755 491.615,451.68 491.615,451.68C491.615,451.68 492.313,451.579 493.708,451.377C495.104,451.175 496.835,450.923 498.903,450.621C500.971,450.318 503.039,450.015 505.107,449.713C507.175,449.41 508.906,449.158 510.302,448.956C511.697,448.755 512.395,448.654 512.395,448.654L512.395,446.737L514.311,446.737L514.311,454.101Z" style="fill-rule:nonzero;"/>
            <path d="M540.639,445.426L544.674,445.426L544.674,466.508L568.076,466.508L568.076,470.543L540.639,470.543L540.639,445.426Z" style="fill-rule:nonzero;"/>
            <path d="M594.303,439.575L590.268,439.575L590.268,423.536C590.268,423.436 590.007,423.099 589.486,422.528C588.965,421.956 588.318,421.275 587.544,420.485C586.771,419.695 585.981,418.913 585.174,418.14C584.367,417.366 583.678,416.728 583.106,416.223C582.534,415.719 582.198,415.467 582.097,415.467L566.866,415.467L566.866,411.432L594.303,411.432L594.303,439.575Z" style="fill-rule:nonzero;"/>
            <path d="M594.303,445.426L594.303,470.543L566.866,470.543L566.866,466.508L590.268,466.508L590.268,445.426L594.303,445.426Z" style="fill-rule:nonzero;"/>
            <path d="M540.639,436.549L540.639,411.432L568.076,411.432L568.076,415.467L544.674,415.467L544.674,436.549L540.639,436.549Z" style="fill-rule:nonzero;"/>
            <rect x="590.268" y="423.335" width="4.035" height="37.323" style="fill-rule:nonzero;"/>
            <rect x="540.639" y="423.335" width="4.035" height="37.323" style="fill-rule:nonzero;"/>
            <path d="M542.656,433.119L544.573,433.119L544.573,434.532C544.573,434.532 545.254,434.431 546.616,434.229C547.977,434.027 549.659,433.783 551.659,433.498C553.66,433.212 555.66,432.926 557.661,432.64C559.662,432.354 561.343,432.111 562.705,431.909C564.066,431.707 564.747,431.606 564.747,431.606C564.747,431.606 564.756,431.674 564.773,431.808C564.789,431.942 564.823,432.153 564.873,432.438C564.924,432.724 564.983,433.086 565.05,433.523C565.117,433.96 565.176,434.33 565.227,434.632C565.277,434.935 565.311,435.162 565.327,435.313C565.344,435.465 565.353,435.54 565.353,435.54C565.353,435.54 564.655,435.641 563.26,435.843C561.864,436.045 560.132,436.297 558.065,436.599C555.997,436.902 553.929,437.205 551.861,437.507C549.793,437.81 548.061,438.062 546.666,438.264C545.271,438.466 544.573,438.566 544.573,438.566L544.573,440.483L542.656,440.483L542.656,433.119Z" style="fill-rule:nonzero;"/>
            <path d="M592.185,449.461L590.268,449.461L590.268,448.048C590.268,448.048 589.587,448.149 588.225,448.351C586.864,448.553 585.182,448.797 583.182,449.082C581.181,449.368 579.18,449.654 577.18,449.94C575.179,450.226 573.498,450.469 572.136,450.671C570.774,450.873 570.094,450.974 570.094,450.974C570.094,450.974 570.085,450.906 570.068,450.772C570.052,450.637 570.018,450.427 569.968,450.142C569.917,449.856 569.858,449.494 569.791,449.057C569.724,448.62 569.665,448.25 569.614,447.948C569.564,447.645 569.53,447.418 569.514,447.267C569.497,447.115 569.488,447.04 569.488,447.04C569.488,447.04 570.186,446.939 571.581,446.737C572.977,446.535 574.708,446.283 576.776,445.981C578.844,445.678 580.912,445.375 582.98,445.073C585.048,444.77 586.78,444.518 588.175,444.316C589.57,444.114 590.268,444.014 590.268,444.014L590.268,442.097L592.185,442.097L592.185,449.461Z" style="fill-rule:nonzero;"/>
            <path d="M590.268,442.4L594.303,442.4L594.303,458.438C594.303,458.539 594.563,458.875 595.085,459.447C595.606,460.019 596.253,460.699 597.026,461.49C597.8,462.28 598.59,463.062 599.397,463.835C600.204,464.608 600.893,465.247 601.465,465.751C602.036,466.256 602.373,466.508 602.474,466.508L617.705,466.508L617.705,470.543L590.268,470.543L590.268,442.4Z" style="fill-rule:nonzero;"/>
            <path d="M643.932,442.4L643.932,470.543L616.495,470.543L616.495,466.508L631.726,466.508C631.827,466.508 632.164,466.256 632.735,465.751C633.307,465.247 633.996,464.608 634.803,463.835C635.61,463.062 636.4,462.28 637.174,461.49C637.947,460.699 638.594,460.019 639.115,459.447C639.637,458.875 639.897,458.539 639.897,458.438L639.897,442.4L643.932,442.4Z" style="fill-rule:nonzero;"/>
            <path d="M590.268,439.575L590.268,411.432L617.705,411.432L617.705,415.467L602.474,415.467C602.373,415.467 602.036,415.719 601.465,416.223C600.893,416.728 600.204,417.366 599.397,418.14C598.59,418.913 597.8,419.695 597.026,420.485C596.253,421.275 595.606,421.956 595.085,422.528C594.563,423.099 594.303,423.436 594.303,423.536L594.303,439.575L590.268,439.575Z" style="fill-rule:nonzero;"/>
            <path d="M643.932,439.575L639.897,439.575L639.897,423.536C639.897,423.436 639.637,423.099 639.115,422.528C638.594,421.956 637.947,421.275 637.174,420.485C636.4,419.695 635.61,418.913 634.803,418.14C633.996,417.366 633.307,416.728 632.735,416.223C632.164,415.719 631.827,415.467 631.726,415.467L616.495,415.467L616.495,411.432L643.932,411.432L643.932,439.575Z" style="fill-rule:nonzero;"/>
            <rect x="639.897" y="430.396" width="4.035" height="21.183" style="fill-rule:nonzero;"/>
            <rect x="590.268" y="430.396" width="4.035" height="21.183" style="fill-rule:nonzero;"/>
            <path d="M623.253,438.869C623.455,438.869 623.573,438.886 623.606,438.919C623.64,438.953 623.657,439.071 623.657,439.273L623.657,442.5C623.657,442.702 623.64,442.82 623.606,442.853C623.573,442.887 623.455,442.904 623.253,442.904L610.745,442.904C610.543,442.904 610.426,442.887 610.392,442.853C610.358,442.82 610.342,442.702 610.342,442.5L610.342,439.273C610.342,439.071 610.358,438.953 610.392,438.919C610.426,438.886 610.543,438.869 610.745,438.869L623.253,438.869Z" style="fill-rule:nonzero;"/>
            <path d="M639.897,445.426L643.932,445.426L643.932,466.508L667.334,466.508L667.334,470.543L639.897,470.543L639.897,445.426Z" style="fill-rule:nonzero;"/>
            <path d="M693.561,439.575L689.526,439.575L689.526,423.536C689.526,423.436 689.266,423.099 688.744,422.528C688.223,421.956 687.576,421.275 686.803,420.485C686.029,419.695 685.239,418.913 684.432,418.14C683.625,417.366 682.936,416.728 682.364,416.223C681.793,415.719 681.456,415.467 681.356,415.467L666.124,415.467L666.124,411.432L693.561,411.432L693.561,439.575Z" style="fill-rule:nonzero;"/>
            <path d="M693.561,445.426L693.561,470.543L666.124,470.543L666.124,466.508L689.526,466.508L689.526,445.426L693.561,445.426Z" style="fill-rule:nonzero;"/>
            <path d="M639.897,436.549L639.897,411.432L667.334,411.432L667.334,415.467L643.932,415.467L643.932,436.549L639.897,436.549Z" style="fill-rule:nonzero;"/>
            <rect x="689.526" y="423.335" width="4.035" height="37.323" style="fill-rule:nonzero;"/>
            <rect x="639.897" y="423.335" width="4.035" height="37.323" style="fill-rule:nonzero;"/>
            <path d="M641.915,433.119L643.831,433.119L643.831,434.532C643.831,434.532 644.512,434.431 645.874,434.229C647.236,434.027 648.917,433.783 650.917,433.498C652.918,433.212 654.919,432.926 656.919,432.64C658.92,432.354 660.601,432.111 661.963,431.909C663.325,431.707 664.006,431.606 664.006,431.606C664.006,431.606 664.014,431.674 664.031,431.808C664.048,431.942 664.081,432.153 664.132,432.438C664.182,432.724 664.241,433.086 664.308,433.523C664.375,433.96 664.434,434.33 664.485,434.632C664.535,434.935 664.569,435.162 664.586,435.313C664.602,435.465 664.611,435.54 664.611,435.54C664.611,435.54 663.913,435.641 662.518,435.843C661.122,436.045 659.391,436.297 657.323,436.599C655.255,436.902 653.187,437.205 651.119,437.507C649.051,437.81 647.32,438.062 645.924,438.264C644.529,438.466 643.831,438.566 643.831,438.566L643.831,440.483L641.915,440.483L641.915,433.119Z" style="fill-rule:nonzero;"/>
            <path d="M691.443,449.461L689.526,449.461L689.526,448.048C689.526,448.048 688.845,448.149 687.484,448.351C686.122,448.553 684.441,448.797 682.44,449.082C680.439,449.368 678.439,449.654 676.438,449.94C674.437,450.226 672.756,450.469 671.394,450.671C670.033,450.873 669.352,450.974 669.352,450.974C669.352,450.974 669.343,450.906 669.327,450.772C669.31,450.637 669.276,450.427 669.226,450.142C669.175,449.856 669.116,449.494 669.049,449.057C668.982,448.62 668.923,448.25 668.873,447.948C668.822,447.645 668.789,447.418 668.772,447.267C668.755,447.115 668.747,447.04 668.747,447.04C668.747,447.04 669.444,446.939 670.84,446.737C672.235,446.535 673.967,446.283 676.035,445.981C678.102,445.678 680.17,445.375 682.238,445.073C684.306,444.77 686.038,444.518 687.433,444.316C688.828,444.114 689.526,444.014 689.526,444.014L689.526,442.097L691.443,442.097L691.443,449.461Z" style="fill-rule:nonzero;"/>
            <rect x="739.155" y="423.436" width="4.035" height="37.323" style="fill-rule:nonzero;"/>
            <rect x="689.526" y="423.335" width="4.035" height="37.323" style="fill-rule:nonzero;"/>
            <path d="M691.544,449.461L691.544,442.097L693.46,442.097L693.46,444.014C693.46,444.014 694.158,444.114 695.553,444.316C696.949,444.518 698.68,444.77 700.748,445.073C702.816,445.375 704.884,445.678 706.952,445.981C709.02,446.283 710.751,446.535 712.147,446.737C713.542,446.939 714.24,447.04 714.24,447.04C714.24,447.04 714.231,447.115 714.215,447.267C714.198,447.418 714.164,447.645 714.114,447.948C714.063,448.25 714.004,448.62 713.937,449.057C713.87,449.494 713.811,449.856 713.761,450.142C713.71,450.427 713.677,450.637 713.66,450.772C713.643,450.906 713.635,450.974 713.635,450.974C713.635,450.974 712.954,450.873 711.592,450.671C710.23,450.469 708.549,450.226 706.548,449.94C704.548,449.654 702.547,449.368 700.546,449.082C698.546,448.797 696.865,448.553 695.503,448.351C694.141,448.149 693.46,448.048 693.46,448.048L693.46,449.461L691.544,449.461Z" style="fill-rule:nonzero;"/>
            <path d="M719.082,431.304C719.082,431.169 719.09,431.077 719.107,431.026C719.124,430.976 719.157,430.942 719.208,430.925C719.258,430.909 719.351,430.9 719.485,430.9L740.063,430.9C740.198,430.9 740.29,430.909 740.341,430.925C740.391,430.942 740.425,430.976 740.441,431.026C740.458,431.077 740.467,431.169 740.467,431.304L740.467,434.532C740.467,434.733 740.45,434.851 740.416,434.885C740.383,434.918 740.265,434.935 740.063,434.935L719.485,434.935C719.351,434.935 719.258,434.927 719.208,434.91C719.157,434.893 719.124,434.859 719.107,434.809C719.09,434.759 719.082,434.666 719.082,434.532L719.082,431.304Z" style="fill-rule:nonzero;"/>
            <path d="M689.526,445.426L693.561,445.426L693.561,466.508L716.963,466.508L716.963,470.543L689.526,470.543L689.526,445.426Z" style="fill-rule:nonzero;"/>
            <path d="M743.19,436.549L739.155,436.549L739.155,415.467L715.753,415.467L715.753,411.432L743.19,411.432L743.19,436.549Z" style="fill-rule:nonzero;"/>
            <path d="M689.526,436.549L689.526,411.432L716.963,411.432L716.963,415.467L693.561,415.467L693.561,436.549L689.526,436.549Z" style="fill-rule:nonzero;"/>
            <path d="M743.19,442.4L743.19,470.543L715.753,470.543L715.753,466.508L730.985,466.508C731.086,466.508 731.422,466.256 731.993,465.751C732.565,465.247 733.254,464.608 734.061,463.835C734.868,463.062 735.658,462.28 736.432,461.49C737.205,460.699 737.852,460.019 738.374,459.447C738.895,458.875 739.155,458.539 739.155,458.438L739.155,442.4L743.19,442.4Z" style="fill-rule:nonzero;"/>
            <path d="M388.7,367.602L388.7,310.56L415.843,310.56L415.843,323.118L443.028,323.118L443.028,310.56L469.928,310.56L469.928,323.118L519.557,323.118L519.557,310.56L546.403,310.56L546.403,323.118L558.09,323.118L558.09,310.56L584.821,310.56L584.821,323.118L637.577,323.118L637.577,310.56L665.014,310.56L665.014,323.118L768.106,323.118L768.106,378.794L714.24,378.794L714.24,367.602L388.7,367.602Z" style="fill:url(#_Linear3);"/>
            <path d="M226.624,368.671L226.624,312.027L253.355,312.027L253.355,320.849L280.086,320.849L280.086,312.027L307.423,312.027L307.423,323.118L360.885,323.118L360.885,378.794L307.423,378.794L307.423,368.671L226.624,368.671Z" style="fill:url(#_Linear4);"/>
            <rect x="278.069" y="333.559" width="4.035" height="23.201" style="fill-rule:nonzero;"/>
            <path d="M282.104,341.527L282.104,369.671L252.649,369.671L252.649,365.636L269.898,365.636C269.999,365.636 270.335,365.384 270.907,364.879C271.478,364.375 272.168,363.736 272.975,362.963C273.782,362.189 274.572,361.408 275.345,360.617C276.119,359.827 276.766,359.146 277.287,358.575C277.808,358.003 278.069,357.667 278.069,357.566L278.069,341.527L282.104,341.527Z" style="fill-rule:nonzero;"/>
            <path d="M224.607,339.813L224.607,310.56L255.978,310.56L255.978,320.849L282.104,320.849L282.104,340.72L278.069,340.72L278.069,332.953C278.069,332.852 277.817,332.516 277.312,331.945C276.808,331.373 276.169,330.692 275.396,329.902C274.622,329.112 273.841,328.33 273.05,327.557C272.26,326.783 271.571,326.144 270.983,325.64C270.394,325.136 270.033,324.884 269.898,324.884L251.943,324.884L251.943,314.595L228.641,314.595L228.641,339.813L224.607,339.813Z" style="fill-rule:nonzero;"/>
            <path d="M224.607,341.527L228.641,341.527L228.641,365.636L254.061,365.636L254.061,369.671L224.607,369.671L224.607,341.527Z" style="fill-rule:nonzero;"/>
            <rect x="224.607" y="333.559" width="4.035" height="23.201" style="fill-rule:nonzero;"/>
            <path d="M251.338,351.413L251.338,338.905C251.338,338.703 251.354,338.585 251.388,338.552C251.422,338.518 251.539,338.501 251.741,338.501L254.969,338.501C255.171,338.501 255.288,338.518 255.322,338.552C255.356,338.585 255.373,338.703 255.373,338.905L255.373,351.413C255.373,351.615 255.356,351.732 255.322,351.766C255.288,351.8 255.171,351.816 254.969,351.816L251.741,351.816C251.539,351.816 251.422,351.8 251.388,351.766C251.354,351.732 251.338,351.615 251.338,351.413Z" style="fill-rule:nonzero;"/>
            <path d="M309.44,344.554L309.44,369.671L293.704,369.671C293.469,369.166 293.351,368.494 293.351,367.653C293.351,366.813 293.469,366.14 293.704,365.636L305.405,365.636L305.405,344.554L309.44,344.554Z" style="fill-rule:nonzero;"/>
            <path d="M278.069,344.554L282.104,344.554L282.104,365.636L293.805,365.636C294.074,366.14 294.208,366.813 294.208,367.653C294.208,368.494 294.074,369.166 293.805,369.671L278.069,369.671L278.069,344.554Z" style="fill-rule:nonzero;"/>
            <rect x="278.069" y="333.559" width="4.035" height="23.201" style="fill-rule:nonzero;"/>
            <rect x="305.405" y="333.559" width="4.035" height="23.201" style="fill-rule:nonzero;"/>
            <path d="M309.44,335.677L305.405,335.677L305.405,314.595L293.704,314.595C293.469,314.09 293.351,313.418 293.351,312.577C293.351,311.737 293.469,311.064 293.704,310.56L309.44,310.56L309.44,335.677Z" style="fill-rule:nonzero;"/>
            <path d="M278.069,335.677L278.069,310.56L293.805,310.56C294.074,311.064 294.208,311.737 294.208,312.577C294.208,313.418 294.074,314.09 293.805,314.595L282.104,314.595L282.104,335.677L278.069,335.677Z" style="fill-rule:nonzero;"/>
            <path d="M309.44,338.703L305.405,338.703L305.405,324.581L293.805,324.581L293.805,320.748L309.44,320.748L309.44,338.703Z" style="fill-rule:nonzero;"/>
            <path d="M278.069,338.703L278.069,320.748L293.805,320.748L293.805,324.581L282.104,324.581L282.104,338.703L278.069,338.703Z" style="fill-rule:nonzero;"/>
            <path d="M362.902,348.992L358.867,348.992L358.867,332.953C358.867,332.852 358.607,332.516 358.086,331.945C357.564,331.373 356.917,330.692 356.144,329.902C355.37,329.112 354.58,328.33 353.773,327.557C352.966,326.783 352.277,326.144 351.705,325.64C351.134,325.136 350.798,324.884 350.697,324.884L333.448,324.884L333.448,320.849L362.902,320.849L362.902,348.992Z" style="fill-rule:nonzero;"/>
            <path d="M305.405,348.992L305.405,320.849L334.86,320.849L334.86,324.884L317.611,324.884C317.51,324.884 317.174,325.136 316.602,325.64C316.03,326.144 315.341,326.783 314.534,327.557C313.727,328.33 312.937,329.112 312.164,329.902C311.39,330.692 310.743,331.373 310.222,331.945C309.701,332.516 309.44,332.852 309.44,332.953L309.44,348.992L305.405,348.992Z" style="fill-rule:nonzero;"/>
            <path d="M332.237,348.286L332.237,335.778C332.237,335.576 332.254,335.458 332.288,335.425C332.321,335.391 332.439,335.374 332.641,335.374L335.869,335.374C336.07,335.374 336.188,335.391 336.222,335.425C336.255,335.458 336.272,335.576 336.272,335.778L336.272,348.286C336.272,348.488 336.255,348.605 336.222,348.639C336.188,348.673 336.07,348.689 335.869,348.689L332.641,348.689C332.439,348.689 332.321,348.673 332.288,348.639C332.254,348.605 332.237,348.488 332.237,348.286Z" style="fill-rule:nonzero;"/>
            <path d="M362.902,351.816L362.902,379.96L333.448,379.96L333.448,375.925L350.697,375.925C350.798,375.925 351.134,375.673 351.705,375.168C352.277,374.664 352.966,374.025 353.773,373.252C354.58,372.478 355.37,371.697 356.144,370.906C356.917,370.116 357.564,369.435 358.086,368.864C358.607,368.292 358.867,367.956 358.867,367.855L358.867,351.816L362.902,351.816Z" style="fill-rule:nonzero;"/>
            <rect x="358.867" y="338.703" width="4.035" height="23.201" style="fill-rule:nonzero;"/>
            <path d="M317.308,359.079L336.07,359.079L336.07,363.114L308.633,363.114L308.633,344.856L309.44,344.856L309.44,352.018C309.44,352.119 309.692,352.422 310.197,352.926C310.701,353.43 311.323,354.027 312.063,354.716C312.802,355.406 313.559,356.087 314.332,356.759C315.106,357.432 315.77,357.986 316.325,358.424C316.879,358.861 317.207,359.079 317.308,359.079Z" style="fill-rule:nonzero;"/>
            <path d="M305.405,351.816L309.44,351.816L309.44,375.925L334.86,375.925L334.86,379.96L305.405,379.96L305.405,351.816Z" style="fill-rule:nonzero;"/>
            <rect x="305.405" y="338.804" width="4.035" height="23.201" style="fill-rule:nonzero;"/>
            <rect x="440.574" y="333.559" width="4.035" height="23.201" style="fill-rule:nonzero;"/>
            <path d="M444.609,341.527L444.609,369.671L415.154,369.671L415.154,365.636L432.403,365.636C432.504,365.636 432.84,365.384 433.412,364.879C433.983,364.375 434.673,363.736 435.48,362.963C436.287,362.189 437.077,361.408 437.85,360.617C438.624,359.827 439.271,359.146 439.792,358.575C440.313,358.003 440.574,357.667 440.574,357.566L440.574,341.527L444.609,341.527Z" style="fill-rule:nonzero;"/>
            <path d="M387.112,339.813L387.112,310.56L418.483,310.56L418.483,320.849L444.609,320.849L444.609,340.72L440.574,340.72L440.574,332.953C440.574,332.852 440.322,332.516 439.817,331.945C439.313,331.373 438.674,330.692 437.901,329.902C437.127,329.112 436.346,328.33 435.555,327.557C434.765,326.783 434.076,326.144 433.488,325.64C432.899,325.136 432.538,324.884 432.403,324.884L414.448,324.884L414.448,314.595L391.146,314.595L391.146,339.813L387.112,339.813Z" style="fill-rule:nonzero;"/>
            <path d="M387.112,341.527L391.146,341.527L391.146,365.636L416.566,365.636L416.566,369.671L387.112,369.671L387.112,341.527Z" style="fill-rule:nonzero;"/>
            <rect x="387.112" y="333.559" width="4.035" height="23.201" style="fill-rule:nonzero;"/>
            <path d="M413.843,351.413L413.843,338.905C413.843,338.703 413.859,338.585 413.893,338.552C413.927,338.518 414.044,338.501 414.246,338.501L417.474,338.501C417.676,338.501 417.793,338.518 417.827,338.552C417.861,338.585 417.878,338.703 417.878,338.905L417.878,351.413C417.878,351.615 417.861,351.732 417.827,351.766C417.793,351.8 417.676,351.816 417.474,351.816L414.246,351.816C414.044,351.816 413.927,351.8 413.893,351.766C413.859,351.732 413.843,351.615 413.843,351.413Z" style="fill-rule:nonzero;"/>
            <path d="M471.945,344.554L471.945,369.671L456.209,369.671C455.974,369.166 455.856,368.494 455.856,367.653C455.856,366.813 455.974,366.14 456.209,365.636L467.91,365.636L467.91,344.554L471.945,344.554Z" style="fill-rule:nonzero;"/>
            <path d="M440.574,344.554L444.609,344.554L444.609,365.636L456.31,365.636C456.579,366.14 456.713,366.813 456.713,367.653C456.713,368.494 456.579,369.166 456.31,369.671L440.574,369.671L440.574,344.554Z" style="fill-rule:nonzero;"/>
            <rect x="440.574" y="333.559" width="4.035" height="23.201" style="fill-rule:nonzero;"/>
            <rect x="467.91" y="333.559" width="4.035" height="23.201" style="fill-rule:nonzero;"/>
            <path d="M471.945,335.677L467.91,335.677L467.91,314.595L456.209,314.595C455.974,314.09 455.856,313.418 455.856,312.577C455.856,311.737 455.974,311.064 456.209,310.56L471.945,310.56L471.945,335.677Z" style="fill-rule:nonzero;"/>
            <path d="M440.574,335.677L440.574,310.56L456.31,310.56C456.579,311.064 456.713,311.737 456.713,312.577C456.713,313.418 456.579,314.09 456.31,314.595L444.609,314.595L444.609,335.677L440.574,335.677Z" style="fill-rule:nonzero;"/>
            <path d="M471.945,338.703L467.91,338.703L467.91,324.581L456.31,324.581L456.31,320.748L471.945,320.748L471.945,338.703Z" style="fill-rule:nonzero;"/>
            <path d="M440.574,338.703L440.574,320.748L456.31,320.748L456.31,324.581L444.609,324.581L444.609,338.703L440.574,338.703Z" style="fill-rule:nonzero;"/>
            <path d="M521.574,369.671L467.91,369.671L467.91,343.646L471.945,343.646L471.945,365.636L495.347,365.636L495.347,351.413L517.539,351.413L517.539,335.475L521.574,335.475L521.574,369.671Z" style="fill-rule:nonzero;"/>
            <path d="M467.91,345.966L467.91,320.849L495.65,320.849L495.65,335.677C495.65,335.677 495.373,335.13 494.818,334.038C494.263,332.945 493.633,331.692 492.926,330.28C492.22,328.868 491.59,327.615 491.035,326.523C490.48,325.43 490.203,324.884 490.203,324.884L471.945,324.884L471.945,345.966L467.91,345.966Z" style="fill-rule:nonzero;"/>
            <path d="M521.574,341.124L517.539,341.124L517.539,324.884L501.299,324.884C501.299,324.884 501.013,325.43 500.441,326.523C499.87,327.615 499.214,328.868 498.474,330.28C497.735,331.692 497.079,332.945 496.507,334.038C495.936,335.13 495.65,335.677 495.65,335.677C495.65,335.677 495.574,335.13 495.423,334.038C495.272,332.945 495.104,331.692 494.919,330.28C494.734,328.868 494.566,327.615 494.414,326.523C494.263,325.43 494.187,324.884 494.187,324.884L494.187,320.849L521.574,320.849L521.574,341.124Z" style="fill-rule:nonzero;"/>
            <rect x="517.539" y="328.616" width="4.035" height="23.201" style="fill-rule:nonzero;"/>
            <path d="M517.539,341.527L521.574,341.527L521.574,357.566C521.574,357.667 521.835,358.003 522.356,358.575C522.877,359.146 523.524,359.827 524.298,360.617C525.071,361.408 525.861,362.189 526.668,362.963C527.475,363.736 528.164,364.375 528.736,364.879C529.308,365.384 529.644,365.636 529.745,365.636L539.529,365.636L539.529,369.671L517.539,369.671L517.539,341.527Z" style="fill-rule:nonzero;"/>
            <path d="M560.107,341.527L560.107,369.671L538.117,369.671L538.117,365.636L556.072,365.636L556.072,341.527L560.107,341.527Z" style="fill-rule:nonzero;"/>
            <path d="M543.665,342.637C543.665,342.503 543.674,342.41 543.69,342.36C543.707,342.309 543.741,342.276 543.791,342.259C543.842,342.242 543.934,342.234 544.069,342.234L559.603,342.234C559.805,342.234 559.922,342.25 559.956,342.284C559.99,342.318 560.006,342.435 560.006,342.637L560.006,345.865C560.006,346.067 559.99,346.184 559.956,346.218C559.922,346.252 559.805,346.268 559.603,346.268L544.069,346.268C543.934,346.268 543.842,346.26 543.791,346.243C543.741,346.226 543.707,346.193 543.69,346.142C543.674,346.092 543.665,345.999 543.665,345.865L543.665,342.637Z" style="fill-rule:nonzero;"/>
            <path d="M517.539,340.62L517.539,310.56L548.91,310.56L548.91,320.849C549.011,320.849 549.028,320.849 548.961,320.849C548.894,320.849 549.179,320.849 549.818,320.849L559.704,320.849C559.906,320.849 560.023,320.865 560.057,320.899C560.09,320.933 560.107,321.084 560.107,321.353L560.107,341.729L556.072,341.729L556.072,324.884L544.876,324.884L544.876,314.595L521.574,314.595L521.574,340.62L517.539,340.62Z" style="fill-rule:nonzero;"/>
            <path d="M613.569,341.527L613.569,369.671L584.115,369.671L584.115,365.636L609.535,365.636L609.535,341.527L613.569,341.527Z" style="fill-rule:nonzero;"/>
            <path d="M556.072,341.527L560.107,341.527L560.107,365.636L585.527,365.636L585.527,369.671L556.072,369.671L556.072,341.527Z" style="fill-rule:nonzero;"/>
            <path d="M556.072,339.813L556.072,310.56L587.444,310.56L587.444,320.849L613.569,320.849L613.569,340.72L609.535,340.72L609.535,332.953C609.535,332.852 609.282,332.516 608.778,331.945C608.274,331.373 607.635,330.692 606.861,329.902C606.088,329.112 605.306,328.33 604.516,327.557C603.726,326.783 603.037,326.144 602.448,325.64C601.86,325.136 601.498,324.884 601.364,324.884L583.409,324.884L583.409,314.595L560.107,314.595L560.107,339.813L556.072,339.813Z" style="fill-rule:nonzero;"/>
            <rect x="556.072" y="333.559" width="4.035" height="23.201" style="fill-rule:nonzero;"/>
            <rect x="609.535" y="333.559" width="4.035" height="23.201" style="fill-rule:nonzero;"/>
            <path d="M586.662,366.342L582.98,366.342C582.93,366.342 582.888,366.325 582.854,366.292C582.82,366.258 582.803,366.216 582.803,366.165L582.803,344.352C582.803,344.217 582.812,344.125 582.829,344.074C582.846,344.024 582.879,343.99 582.93,343.974C582.98,343.957 583.072,343.948 583.207,343.948L586.435,343.948C586.569,343.948 586.662,343.957 586.712,343.974C586.763,343.99 586.796,344.024 586.813,344.074C586.83,344.125 586.838,344.217 586.838,344.352L586.838,366.165C586.838,366.216 586.822,366.258 586.788,366.292C586.754,366.325 586.712,366.342 586.662,366.342Z" style="fill-rule:nonzero;"/>
            <rect x="609.535" y="333.559" width="4.035" height="23.201" style="fill-rule:nonzero;"/>
            <rect x="662.997" y="333.559" width="4.035" height="23.201" style="fill-rule:nonzero;"/>
            <path d="M609.535,341.527L613.569,341.527L613.569,357.566C613.569,357.667 613.83,358.003 614.351,358.575C614.872,359.146 615.52,359.827 616.293,360.617C617.066,361.408 617.857,362.189 618.664,362.963C619.47,363.736 620.16,364.375 620.731,364.879C621.303,365.384 621.639,365.636 621.74,365.636L638.989,365.636L638.989,369.671L609.535,369.671L609.535,341.527Z" style="fill-rule:nonzero;"/>
            <path d="M667.032,339.813L662.997,339.813L662.997,314.595L639.695,314.595L639.695,324.884L621.74,324.884C621.606,324.884 621.244,325.136 620.656,325.64C620.067,326.144 619.378,326.783 618.588,327.557C617.798,328.33 617.016,329.112 616.243,329.902C615.469,330.692 614.83,331.373 614.326,331.945C613.822,332.516 613.569,332.852 613.569,332.953L613.569,340.72L609.535,340.72L609.535,320.849L635.66,320.849L635.66,310.56L667.032,310.56L667.032,339.813Z" style="fill-rule:nonzero;"/>
            <path d="M667.032,341.527L667.032,369.671L637.577,369.671L637.577,365.636L662.997,365.636L662.997,341.527L667.032,341.527Z" style="fill-rule:nonzero;"/>
            <path d="M636.266,351.413L636.266,338.905C636.266,338.703 636.283,338.585 636.316,338.552C636.35,338.518 636.467,338.501 636.669,338.501L639.897,338.501C640.099,338.501 640.217,338.518 640.25,338.552C640.284,338.585 640.301,338.703 640.301,338.905L640.301,351.413C640.301,351.615 640.284,351.732 640.25,351.766C640.217,351.8 640.099,351.816 639.897,351.816L636.669,351.816C636.467,351.816 636.35,351.8 636.316,351.766C636.283,351.732 636.266,351.615 636.266,351.413Z" style="fill-rule:nonzero;"/>
            <path d="M662.997,341.527L667.032,341.527L667.032,357.566C667.032,357.667 667.292,358.003 667.813,358.575C668.335,359.146 668.982,359.827 669.755,360.617C670.529,361.408 671.319,362.189 672.126,362.963C672.933,363.736 673.622,364.375 674.194,364.879C674.765,365.384 675.101,365.636 675.202,365.636L690.434,365.636L690.434,369.671L662.997,369.671L662.997,341.527Z" style="fill-rule:nonzero;"/>
            <path d="M662.997,345.966L662.997,320.849L690.434,320.849L690.434,324.884L667.032,324.884L667.032,345.966L662.997,345.966Z" style="fill-rule:nonzero;"/>
            <path d="M716.661,348.992L712.626,348.992L712.626,332.953C712.626,332.852 712.365,332.516 711.844,331.945C711.323,331.373 710.676,330.692 709.902,329.902C709.129,329.112 708.339,328.33 707.532,327.557C706.725,326.783 706.036,326.144 705.464,325.64C704.892,325.136 704.556,324.884 704.455,324.884L689.224,324.884L689.224,320.849L716.661,320.849L716.661,348.992Z" style="fill-rule:nonzero;"/>
            <path d="M716.661,344.554L716.661,369.671L689.224,369.671L689.224,365.636L712.626,365.636L712.626,344.554L716.661,344.554Z" style="fill-rule:nonzero;"/>
            <rect x="712.626" y="333.559" width="4.035" height="23.201" style="fill-rule:nonzero;"/>
            <path d="M683.676,353.834C683.474,353.834 683.356,353.817 683.323,353.783C683.289,353.75 683.272,353.632 683.272,353.43L683.272,350.202C683.272,350.001 683.289,349.883 683.323,349.849C683.356,349.816 683.474,349.799 683.676,349.799L696.184,349.799C696.385,349.799 696.503,349.816 696.537,349.849C696.57,349.883 696.587,350.001 696.587,350.202L696.587,353.43C696.587,353.632 696.57,353.75 696.537,353.783C696.503,353.817 696.385,353.834 696.184,353.834L683.676,353.834Z" style="fill-rule:nonzero;"/>
            <path d="M665.115,337.997L667.032,337.997L667.032,339.409C667.032,339.409 667.713,339.308 669.074,339.107C670.436,338.905 672.117,338.661 674.118,338.375C676.119,338.089 678.119,337.804 680.12,337.518C682.12,337.232 683.802,336.988 685.163,336.786C686.525,336.585 687.206,336.484 687.206,336.484C687.206,336.484 687.215,336.551 687.231,336.686C687.248,336.82 687.282,337.03 687.332,337.316C687.383,337.602 687.441,337.963 687.509,338.4C687.576,338.838 687.635,339.207 687.685,339.51C687.736,339.813 687.769,340.04 687.786,340.191C687.803,340.342 687.811,340.418 687.811,340.418C687.811,340.418 687.114,340.519 685.718,340.72C684.323,340.922 682.591,341.174 680.523,341.477C678.455,341.78 676.388,342.082 674.32,342.385C672.252,342.687 670.52,342.94 669.125,343.141C667.729,343.343 667.032,343.444 667.032,343.444L667.032,345.361L665.115,345.361L665.115,337.997Z" style="fill-rule:nonzero;"/>
            <path d="M770.123,351.816L770.123,379.96L740.668,379.96L740.668,375.925L757.917,375.925C758.018,375.925 758.355,375.673 758.926,375.168C759.498,374.664 760.187,374.025 760.994,373.252C761.801,372.478 762.591,371.697 763.365,370.906C764.138,370.116 764.785,369.435 765.306,368.864C765.828,368.292 766.088,367.956 766.088,367.855L766.088,351.816L770.123,351.816Z" style="fill-rule:nonzero;"/>
            <rect x="766.088" y="338.703" width="4.035" height="23.201" style="fill-rule:nonzero;"/>
            <path d="M770.123,348.992L766.088,348.992L766.088,324.884L740.668,324.884L740.668,320.849L770.123,320.849L770.123,348.992Z" style="fill-rule:nonzero;"/>
            <path d="M712.626,348.992L712.626,320.849L742.081,320.849L742.081,324.884L716.661,324.884L716.661,348.992L712.626,348.992Z" style="fill-rule:nonzero;"/>
            <path d="M724.529,358.575L743.291,358.575L743.291,362.61L715.854,362.61L715.854,344.352L716.661,344.352L716.661,351.514C716.661,351.615 716.913,351.917 717.417,352.422C717.922,352.926 718.544,353.523 719.283,354.212C720.023,354.901 720.78,355.582 721.553,356.255C722.326,356.927 722.991,357.482 723.545,357.919C724.1,358.356 724.428,358.575 724.529,358.575Z" style="fill-rule:nonzero;"/>
            <path d="M712.626,351.816L716.661,351.816L716.661,375.925L742.081,375.925L742.081,379.96L712.626,379.96L712.626,351.816Z" style="fill-rule:nonzero;"/>
            <rect x="712.626" y="338.804" width="4.035" height="23.201" style="fill-rule:nonzero;"/>
            <path d="M739.534,324.682L743.215,324.682C743.266,324.682 743.308,324.699 743.341,324.732C743.375,324.766 743.392,324.808 743.392,324.858L743.392,346.672C743.392,346.806 743.383,346.899 743.367,346.949C743.35,347 743.316,347.033 743.266,347.05C743.215,347.067 743.123,347.075 742.988,347.075L739.761,347.075C739.626,347.075 739.534,347.067 739.483,347.05C739.433,347.033 739.399,347 739.382,346.949C739.365,346.899 739.357,346.806 739.357,346.672L739.357,324.858C739.357,324.808 739.374,324.766 739.407,324.732C739.441,324.699 739.483,324.682 739.534,324.682Z" style="fill-rule:nonzero;"/>
            <g transform="matrix(1,0,0,1.01449,0,-4.04443)">
                <path d="M374.856,212.071L402.293,212.071L402.293,222.412L642.167,222.412L642.167,212.071L669.503,212.071L669.503,222.412L721.15,222.412L721.15,267.636L642.167,267.636L642.167,279.088L535.242,279.088L535.242,265.664L273.58,265.664L273.58,212.071L325.227,212.071L325.227,223.058L374.856,223.058L374.856,212.071Z" style="fill:url(#_Linear5);"/>
            </g>
            <path d="M327.244,240.655L327.244,268.799L299.807,268.799L299.807,264.764L315.038,264.764C315.139,264.764 315.476,264.512 316.047,264.007C316.619,263.503 317.308,262.864 318.115,262.091C318.922,261.317 319.712,260.536 320.486,259.745C321.259,258.955 321.906,258.274 322.427,257.703C322.948,257.131 323.209,256.795 323.209,256.694L323.209,240.655L327.244,240.655Z" style="fill-rule:nonzero;"/>
            <path d="M273.58,237.831L273.58,209.688L301.017,209.688L301.017,213.722L285.786,213.722C285.685,213.722 285.348,213.975 284.777,214.479C284.205,214.983 283.516,215.622 282.709,216.396C281.902,217.169 281.112,217.951 280.338,218.741C279.565,219.531 278.918,220.212 278.397,220.784C277.875,221.355 277.615,221.691 277.615,221.792L277.615,237.831L273.58,237.831Z" style="fill-rule:nonzero;"/>
            <path d="M273.58,243.681L277.615,243.681L277.615,264.764L301.017,264.764L301.017,268.799L273.58,268.799L273.58,243.681Z" style="fill-rule:nonzero;"/>
            <path d="M327.244,234.805L323.209,234.805L323.209,213.722L299.807,213.722L299.807,209.688L327.244,209.688L327.244,234.805Z" style="fill-rule:nonzero;"/>
            <rect x="323.209" y="219.674" width="4.035" height="37.323" style="fill-rule:nonzero;"/>
            <rect x="273.58" y="221.59" width="4.035" height="37.323" style="fill-rule:nonzero;"/>
            <path d="M275.698,245.699L275.698,238.335L277.615,238.335L277.615,240.252C277.615,240.252 278.313,240.353 279.708,240.554C281.103,240.756 282.835,241.008 284.903,241.311C286.971,241.614 289.039,241.916 291.107,242.219C293.174,242.521 294.906,242.774 296.301,242.975C297.697,243.177 298.395,243.278 298.395,243.278C298.395,243.278 298.386,243.354 298.369,243.505C298.352,243.656 298.319,243.883 298.268,244.186C298.218,244.488 298.159,244.858 298.092,245.295C298.025,245.733 297.966,246.094 297.915,246.38C297.865,246.666 297.831,246.876 297.815,247.01C297.798,247.145 297.789,247.212 297.789,247.212C297.789,247.212 297.108,247.111 295.747,246.909C294.385,246.708 292.704,246.464 290.703,246.178C288.702,245.892 286.702,245.606 284.701,245.321C282.7,245.035 281.019,244.791 279.658,244.589C278.296,244.388 277.615,244.287 277.615,244.287L277.615,245.699L275.698,245.699Z" style="fill-rule:nonzero;"/>
            <path d="M325.126,232.081L325.126,239.445L323.209,239.445L323.209,237.528C323.209,237.528 322.511,237.427 321.116,237.226C319.721,237.024 317.989,236.772 315.921,236.469C313.853,236.167 311.785,235.864 309.717,235.561C307.65,235.259 305.918,235.006 304.523,234.805C303.127,234.603 302.429,234.502 302.429,234.502C302.429,234.502 302.438,234.426 302.455,234.275C302.471,234.124 302.505,233.897 302.555,233.594C302.606,233.292 302.665,232.922 302.732,232.485C302.799,232.048 302.858,231.686 302.909,231.4C302.959,231.114 302.993,230.904 303.009,230.77C303.026,230.635 303.035,230.568 303.035,230.568C303.035,230.568 303.716,230.669 305.077,230.871C306.439,231.072 308.12,231.316 310.121,231.602C312.122,231.888 314.122,232.174 316.123,232.459C318.123,232.745 319.805,232.989 321.166,233.191C322.528,233.393 323.209,233.493 323.209,233.493L323.209,232.081L325.126,232.081Z" style="fill-rule:nonzero;"/>
            <path d="M323.209,240.655L327.244,240.655L327.244,256.694C327.244,256.795 327.505,257.131 328.026,257.703C328.547,258.274 329.194,258.955 329.967,259.745C330.741,260.536 331.531,261.317 332.338,262.091C333.145,262.864 333.834,263.503 334.406,264.007C334.977,264.512 335.314,264.764 335.415,264.764L350.646,264.764L350.646,268.799L323.209,268.799L323.209,240.655Z" style="fill-rule:nonzero;"/>
            <path d="M323.209,248.12L323.209,219.977L350.646,219.977L350.646,224.011L335.415,224.011C335.314,224.011 334.977,224.264 334.406,224.768C333.834,225.272 333.145,225.911 332.338,226.685C331.531,227.458 330.741,228.24 329.967,229.03C329.194,229.82 328.547,230.501 328.026,231.072C327.505,231.644 327.244,231.98 327.244,232.081L327.244,248.12L323.209,248.12Z" style="fill-rule:nonzero;"/>
            <rect x="323.209" y="232.686" width="4.035" height="23.201" style="fill-rule:nonzero;"/>
            <path d="M353.37,242.673C353.37,242.538 353.378,242.446 353.395,242.395C353.412,242.345 353.445,242.311 353.496,242.294C353.546,242.278 353.639,242.269 353.773,242.269L374.351,242.269C374.486,242.269 374.578,242.278 374.629,242.294C374.679,242.311 374.713,242.345 374.73,242.395C374.746,242.446 374.755,242.538 374.755,242.673L374.755,245.901C374.755,246.102 374.738,246.22 374.704,246.254C374.671,246.287 374.553,246.304 374.351,246.304L353.773,246.304C353.639,246.304 353.546,246.296 353.496,246.279C353.445,246.262 353.412,246.229 353.395,246.178C353.378,246.128 353.37,246.035 353.37,245.901L353.37,242.673Z" style="fill-rule:nonzero;"/>
            <path d="M376.873,243.681L376.873,268.799L349.436,268.799L349.436,264.764L372.838,264.764L372.838,243.681L376.873,243.681Z" style="fill-rule:nonzero;"/>
            <path d="M376.873,245.094L372.838,245.094L372.838,224.011L349.436,224.011L349.436,219.977L376.873,219.977L376.873,245.094Z" style="fill-rule:nonzero;"/>
            <path d="M430.335,240.655L430.335,268.799L400.881,268.799L400.881,264.764L426.3,264.764L426.3,240.655L430.335,240.655Z" style="fill-rule:nonzero;"/>
            <path d="M372.838,240.655L376.873,240.655L376.873,264.764L402.293,264.764L402.293,268.799L372.838,268.799L372.838,240.655Z" style="fill-rule:nonzero;"/>
            <path d="M372.838,238.94L372.838,209.688L404.209,209.688L404.209,219.977L430.335,219.977L430.335,239.848L426.3,239.848L426.3,232.081C426.3,231.98 426.048,231.644 425.544,231.072C425.039,230.501 424.401,229.82 423.627,229.03C422.854,228.24 422.072,227.458 421.282,226.685C420.492,225.911 419.803,225.272 419.214,224.768C418.626,224.264 418.264,224.011 418.13,224.011L400.174,224.011L400.174,213.722L376.873,213.722L376.873,238.94L372.838,238.94Z" style="fill-rule:nonzero;"/>
            <rect x="372.838" y="232.686" width="4.035" height="23.201" style="fill-rule:nonzero;"/>
            <rect x="426.3" y="232.686" width="4.035" height="23.201" style="fill-rule:nonzero;"/>
            <path d="M403.428,265.47L399.746,265.47C399.695,265.47 399.653,265.453 399.62,265.419C399.586,265.386 399.569,265.344 399.569,265.293L399.569,243.48C399.569,243.345 399.578,243.253 399.594,243.202C399.611,243.152 399.645,243.118 399.695,243.101C399.746,243.085 399.838,243.076 399.973,243.076L403.201,243.076C403.335,243.076 403.428,243.085 403.478,243.101C403.528,243.118 403.562,243.152 403.579,243.202C403.596,243.253 403.604,243.345 403.604,243.48L403.604,265.293C403.604,265.344 403.587,265.386 403.554,265.419C403.52,265.453 403.478,265.47 403.428,265.47Z" style="fill-rule:nonzero;"/>
            <rect x="479.763" y="232.686" width="4.035" height="23.201" style="fill-rule:nonzero;"/>
            <rect x="426.3" y="232.686" width="4.035" height="23.201" style="fill-rule:nonzero;"/>
            <path d="M483.797,248.12L479.763,248.12L479.763,232.081C479.763,231.98 479.502,231.644 478.981,231.072C478.46,230.501 477.812,229.82 477.039,229.03C476.266,228.24 475.476,227.458 474.669,226.685C473.862,225.911 473.172,225.272 472.601,224.768C472.029,224.264 471.693,224.011 471.592,224.011L454.343,224.011L454.343,219.977L483.797,219.977L483.797,248.12Z" style="fill-rule:nonzero;"/>
            <path d="M483.797,240.655L483.797,268.799L454.343,268.799L454.343,264.764L479.763,264.764L479.763,240.655L483.797,240.655Z" style="fill-rule:nonzero;"/>
            <path d="M426.3,240.655L430.335,240.655L430.335,264.764L455.755,264.764L455.755,268.799L426.3,268.799L426.3,240.655Z" style="fill-rule:nonzero;"/>
            <path d="M426.3,248.12L426.3,219.977L455.755,219.977L455.755,224.011L430.335,224.011L430.335,248.12L426.3,248.12Z" style="fill-rule:nonzero;"/>
            <path d="M456.89,265.47L453.208,265.47C453.158,265.47 453.116,265.453 453.082,265.419C453.048,265.386 453.031,265.344 453.031,265.293L453.031,243.48C453.031,243.345 453.04,243.253 453.057,243.202C453.074,243.152 453.107,243.118 453.158,243.101C453.208,243.085 453.3,243.076 453.435,243.076L456.663,243.076C456.797,243.076 456.89,243.085 456.94,243.101C456.991,243.118 457.024,243.152 457.041,243.202C457.058,243.253 457.066,243.345 457.066,243.48L457.066,265.293C457.066,265.344 457.05,265.386 457.016,265.419C456.982,265.453 456.94,265.47 456.89,265.47Z" style="fill-rule:nonzero;"/>
            <rect x="479.763" y="232.787" width="4.035" height="23.201" style="fill-rule:nonzero;"/>
            <rect x="533.225" y="232.787" width="4.035" height="23.201" style="fill-rule:nonzero;"/>
            <path d="M479.763,240.655L483.797,240.655L483.797,256.694C483.797,256.795 484.058,257.131 484.579,257.703C485.1,258.274 485.748,258.955 486.521,259.745C487.294,260.536 488.085,261.317 488.892,262.091C489.699,262.864 490.388,263.503 490.959,264.007C491.531,264.512 491.867,264.764 491.968,264.764L509.217,264.764L509.217,268.799L479.763,268.799L479.763,240.655Z" style="fill-rule:nonzero;"/>
            <path d="M479.763,248.12L479.763,219.977L509.217,219.977L509.217,224.011L483.797,224.011L483.797,248.12L479.763,248.12Z" style="fill-rule:nonzero;"/>
            <path d="M537.26,248.12L533.225,248.12L533.225,224.011L507.805,224.011L507.805,219.977L537.26,219.977L537.26,248.12Z" style="fill-rule:nonzero;"/>
            <path d="M537.26,240.655L537.26,268.799L507.805,268.799L507.805,264.764L533.225,264.764L533.225,240.655L537.26,240.655Z" style="fill-rule:nonzero;"/>
            <path d="M506.67,223.81L510.352,223.81C510.403,223.81 510.445,223.826 510.478,223.86C510.512,223.894 510.529,223.936 510.529,223.986L510.529,245.8C510.529,245.934 510.52,246.027 510.503,246.077C510.487,246.128 510.453,246.161 510.403,246.178C510.352,246.195 510.26,246.203 510.125,246.203L506.897,246.203C506.763,246.203 506.67,246.195 506.62,246.178C506.569,246.161 506.536,246.128 506.519,246.077C506.502,246.027 506.494,245.934 506.494,245.8L506.494,223.986C506.494,223.936 506.511,223.894 506.544,223.86C506.578,223.826 506.62,223.81 506.67,223.81Z" style="fill-rule:nonzero;"/>
            <path d="M590.722,248.12L586.687,248.12L586.687,232.081C586.687,231.98 586.426,231.644 585.905,231.072C585.384,230.501 584.737,229.82 583.964,229.03C583.19,228.24 582.4,227.458 581.593,226.685C580.786,225.911 580.097,225.272 579.525,224.768C578.954,224.264 578.617,224.011 578.516,224.011L561.267,224.011L561.267,219.977L590.722,219.977L590.722,248.12Z" style="fill-rule:nonzero;"/>
            <path d="M533.225,248.12L533.225,219.977L562.679,219.977L562.679,224.011L545.43,224.011C545.329,224.011 544.993,224.264 544.422,224.768C543.85,225.272 543.161,225.911 542.354,226.685C541.547,227.458 540.757,228.24 539.983,229.03C539.21,229.82 538.563,230.501 538.041,231.072C537.52,231.644 537.26,231.98 537.26,232.081L537.26,248.12L533.225,248.12Z" style="fill-rule:nonzero;"/>
            <path d="M560.057,247.414L560.057,234.906C560.057,234.704 560.074,234.586 560.107,234.553C560.141,234.519 560.259,234.502 560.46,234.502L563.688,234.502C563.89,234.502 564.008,234.519 564.041,234.553C564.075,234.586 564.092,234.704 564.092,234.906L564.092,247.414C564.092,247.615 564.075,247.733 564.041,247.767C564.008,247.8 563.89,247.817 563.688,247.817L560.46,247.817C560.259,247.817 560.141,247.8 560.107,247.767C560.074,247.733 560.057,247.615 560.057,247.414Z" style="fill-rule:nonzero;"/>
            <path d="M590.722,250.944L590.722,279.088L561.267,279.088L561.267,275.053L578.516,275.053C578.617,275.053 578.954,274.801 579.525,274.296C580.097,273.792 580.786,273.153 581.593,272.38C582.4,271.606 583.19,270.824 583.964,270.034C584.737,269.244 585.384,268.563 585.905,267.992C586.426,267.42 586.687,267.084 586.687,266.983L586.687,250.944L590.722,250.944Z" style="fill-rule:nonzero;"/>
            <rect x="586.687" y="237.831" width="4.035" height="23.201" style="fill-rule:nonzero;"/>
            <path d="M545.128,258.207L563.89,258.207L563.89,262.242L536.453,262.242L536.453,243.984L537.26,243.984L537.26,251.146C537.26,251.247 537.512,251.55 538.016,252.054C538.521,252.558 539.143,253.155 539.882,253.844C540.622,254.534 541.379,255.215 542.152,255.887C542.925,256.559 543.589,257.114 544.144,257.551C544.699,257.989 545.027,258.207 545.128,258.207Z" style="fill-rule:nonzero;"/>
            <path d="M533.225,250.944L537.26,250.944L537.26,275.053L562.679,275.053L562.679,279.088L533.225,279.088L533.225,250.944Z" style="fill-rule:nonzero;"/>
            <rect x="533.225" y="237.932" width="4.035" height="23.201" style="fill-rule:nonzero;"/>
            <path d="M644.184,248.12L640.149,248.12L640.149,232.081C640.149,231.98 639.889,231.644 639.368,231.072C638.846,230.501 638.199,229.82 637.426,229.03C636.652,228.24 635.862,227.458 635.055,226.685C634.248,225.911 633.559,225.272 632.987,224.768C632.416,224.264 632.08,224.011 631.979,224.011L614.73,224.011L614.73,219.977L644.184,219.977L644.184,248.12Z" style="fill-rule:nonzero;"/>
            <path d="M586.687,248.12L586.687,219.977L616.142,219.977L616.142,224.011L598.893,224.011C598.792,224.011 598.455,224.264 597.884,224.768C597.312,225.272 596.623,225.911 595.816,226.685C595.009,227.458 594.219,228.24 593.445,229.03C592.672,229.82 592.025,230.501 591.504,231.072C590.983,231.644 590.722,231.98 590.722,232.081L590.722,248.12L586.687,248.12Z" style="fill-rule:nonzero;"/>
            <path d="M613.519,247.414L613.519,234.906C613.519,234.704 613.536,234.586 613.569,234.553C613.603,234.519 613.721,234.502 613.923,234.502L617.15,234.502C617.352,234.502 617.47,234.519 617.503,234.553C617.537,234.586 617.554,234.704 617.554,234.906L617.554,247.414C617.554,247.615 617.537,247.733 617.503,247.767C617.47,247.8 617.352,247.817 617.15,247.817L613.923,247.817C613.721,247.817 613.603,247.8 613.569,247.767C613.536,247.733 613.519,247.615 613.519,247.414Z" style="fill-rule:nonzero;"/>
            <path d="M644.184,250.944L644.184,279.088L614.73,279.088L614.73,275.053L631.979,275.053C632.08,275.053 632.416,274.801 632.987,274.296C633.559,273.792 634.248,273.153 635.055,272.38C635.862,271.606 636.652,270.824 637.426,270.034C638.199,269.244 638.846,268.563 639.368,267.992C639.889,267.42 640.149,267.084 640.149,266.983L640.149,250.944L644.184,250.944Z" style="fill-rule:nonzero;"/>
            <rect x="640.149" y="237.831" width="4.035" height="23.201" style="fill-rule:nonzero;"/>
            <path d="M598.59,258.207L617.352,258.207L617.352,262.242L589.915,262.242L589.915,243.984L590.722,243.984L590.722,251.146C590.722,251.247 590.974,251.55 591.478,252.054C591.983,252.558 592.605,253.155 593.345,253.844C594.084,254.534 594.841,255.215 595.614,255.887C596.388,256.559 597.052,257.114 597.606,257.551C598.161,257.989 598.489,258.207 598.59,258.207Z" style="fill-rule:nonzero;"/>
            <path d="M586.687,250.944L590.722,250.944L590.722,275.053L616.142,275.053L616.142,279.088L586.687,279.088L586.687,250.944Z" style="fill-rule:nonzero;"/>
            <rect x="586.687" y="237.932" width="4.035" height="23.201" style="fill-rule:nonzero;"/>
            <path d="M671.521,243.681L671.521,268.799L655.784,268.799C655.549,268.294 655.431,267.622 655.431,266.781C655.431,265.941 655.549,265.268 655.784,264.764L667.486,264.764L667.486,243.681L671.521,243.681Z" style="fill-rule:nonzero;"/>
            <path d="M640.149,243.681L644.184,243.681L644.184,264.764L655.885,264.764C656.154,265.268 656.289,265.941 656.289,266.781C656.289,267.622 656.154,268.294 655.885,268.799L640.149,268.799L640.149,243.681Z" style="fill-rule:nonzero;"/>
            <rect x="640.149" y="232.686" width="4.035" height="23.201" style="fill-rule:nonzero;"/>
            <rect x="667.486" y="232.686" width="4.035" height="23.201" style="fill-rule:nonzero;"/>
            <path d="M671.521,234.805L667.486,234.805L667.486,213.722L655.784,213.722C655.549,213.218 655.431,212.546 655.431,211.705C655.431,210.864 655.549,210.192 655.784,209.688L671.521,209.688L671.521,234.805Z" style="fill-rule:nonzero;"/>
            <path d="M640.149,234.805L640.149,209.688L655.885,209.688C656.154,210.192 656.289,210.864 656.289,211.705C656.289,212.546 656.154,213.218 655.885,213.722L644.184,213.722L644.184,234.805L640.149,234.805Z" style="fill-rule:nonzero;"/>
            <path d="M671.521,237.831L667.486,237.831L667.486,223.709L655.885,223.709L655.885,219.876L671.521,219.876L671.521,237.831Z" style="fill-rule:nonzero;"/>
            <path d="M640.149,237.831L640.149,219.876L655.885,219.876L655.885,223.709L644.184,223.709L644.184,237.831L640.149,237.831Z" style="fill-rule:nonzero;"/>
            <path d="M721.15,240.655L721.15,268.799L693.712,268.799L693.712,264.764L708.944,264.764C709.045,264.764 709.381,264.512 709.953,264.007C710.524,263.503 711.214,262.864 712.021,262.091C712.828,261.317 713.618,260.536 714.391,259.745C715.165,258.955 715.812,258.274 716.333,257.703C716.854,257.131 717.115,256.795 717.115,256.694L717.115,240.655L721.15,240.655Z" style="fill-rule:nonzero;"/>
            <path d="M667.486,248.12L667.486,219.977L694.923,219.977L694.923,224.011L679.691,224.011C679.59,224.011 679.254,224.264 678.682,224.768C678.111,225.272 677.422,225.911 676.615,226.685C675.808,227.458 675.017,228.24 674.244,229.03C673.471,229.82 672.823,230.501 672.302,231.072C671.781,231.644 671.521,231.98 671.521,232.081L671.521,248.12L667.486,248.12Z" style="fill-rule:nonzero;"/>
            <path d="M721.15,245.094L717.115,245.094L717.115,224.011L693.712,224.011L693.712,219.977L721.15,219.977L721.15,245.094Z" style="fill-rule:nonzero;"/>
            <path d="M667.486,243.681L671.521,243.681L671.521,264.764L694.923,264.764L694.923,268.799L667.486,268.799L667.486,243.681Z" style="fill-rule:nonzero;"/>
            <path d="M669.503,251.65L669.503,244.287L671.42,244.287L671.42,246.203C671.42,246.203 672.117,246.304 673.513,246.506C674.908,246.708 676.64,246.96 678.708,247.262C680.776,247.565 682.843,247.868 684.911,248.17C686.979,248.473 688.711,248.725 690.106,248.927C691.502,249.129 692.199,249.229 692.199,249.229C692.199,249.229 692.191,249.305 692.174,249.456C692.157,249.608 692.124,249.835 692.073,250.137C692.023,250.44 691.964,250.81 691.897,251.247C691.829,251.684 691.771,252.045 691.72,252.331C691.67,252.617 691.636,252.827 691.619,252.962C691.602,253.096 691.594,253.163 691.594,253.163C691.594,253.163 690.913,253.063 689.551,252.861C688.19,252.659 686.508,252.415 684.508,252.13C682.507,251.844 680.507,251.558 678.506,251.272C676.505,250.986 674.824,250.743 673.462,250.541C672.101,250.339 671.42,250.238 671.42,250.238L671.42,251.65L669.503,251.65Z" style="fill-rule:nonzero;"/>
            <path d="M719.233,238.033L719.233,245.396L717.316,245.396L717.316,243.48C717.316,243.48 716.619,243.379 715.223,243.177C713.828,242.975 712.096,242.723 710.028,242.421C707.961,242.118 705.893,241.815 703.825,241.513C701.757,241.21 700.025,240.958 698.63,240.756C697.235,240.554 696.537,240.454 696.537,240.454C696.537,240.454 696.545,240.378 696.562,240.227C696.579,240.075 696.612,239.848 696.663,239.546C696.713,239.243 696.772,238.873 696.839,238.436C696.907,237.999 696.966,237.638 697.016,237.352C697.066,237.066 697.1,236.856 697.117,236.721C697.134,236.587 697.142,236.52 697.142,236.52C697.142,236.52 697.823,236.62 699.185,236.822C700.546,237.024 702.228,237.268 704.228,237.554C706.229,237.839 708.23,238.125 710.23,238.411C712.231,238.697 713.912,238.94 715.274,239.142C716.636,239.344 717.316,239.445 717.316,239.445L717.316,238.033L719.233,238.033Z" style="fill-rule:nonzero;"/>
        </g>
    </g>
    <defs>
        <linearGradient id="_Linear1" x1="0" y1="0" x2="1" y2="0" gradientUnits="userSpaceOnUse" gradientTransform="matrix(1.77367e-15,55.9645,-28.9663,3.42684e-15,630.416,413.751)"><stop offset="0" style="stop-color:rgb(255,255,85);stop-opacity:1"/><stop offset="1" style="stop-color:rgb(250,0,179);stop-opacity:1"/></linearGradient>
        <linearGradient id="_Linear2" x1="0" y1="0" x2="1" y2="0" gradientUnits="userSpaceOnUse" gradientTransform="matrix(2.84002e-15,46.3811,-31.6371,1.93722e-15,369.012,422.335)"><stop offset="0" style="stop-color:rgb(255,255,85);stop-opacity:1"/><stop offset="1" style="stop-color:rgb(250,0,179);stop-opacity:1"/></linearGradient>
        <linearGradient id="_Linear3" x1="0" y1="0" x2="1" y2="0" gradientUnits="userSpaceOnUse" gradientTransform="matrix(2.86442e-15,46.7794,-38.9475,2.38485e-15,556.072,320.849)"><stop offset="0" style="stop-color:rgb(255,255,85);stop-opacity:1"/><stop offset="1" style="stop-color:rgb(250,0,179);stop-opacity:1"/></linearGradient>
        <linearGradient id="_Linear4" x1="0" y1="0" x2="1" y2="0" gradientUnits="userSpaceOnUse" gradientTransform="matrix(3.54811e-15,57.945,-17.4474,1.06834e-15,286.139,320.849)"><stop offset="0" style="stop-color:rgb(255,255,85);stop-opacity:1"/><stop offset="1" style="stop-color:rgb(250,0,179);stop-opacity:1"/></linearGradient>
        <linearGradient id="_Linear5" x1="0" y1="0" x2="1" y2="0" gradientUnits="userSpaceOnUse" gradientTransform="matrix(0.353052,44.1475,-44.1475,0.343038,471.592,224.798)"><stop offset="0" style="stop-color:rgb(255,255,85);stop-opacity:1"/><stop offset="1" style="stop-color:rgb(250,0,179);stop-opacity:1"/></linearGradient>
    </defs>
</svg>
